<?xml version="1.0" encoding="utf-8"?>
<svg version="1.1" xmlns="http://www.w3.org/2000/svg" xmlns:xlink="http://www.w3.org/1999/xlink" x="0px" y="0px"
	 viewBox="0 0 46.8 16" style="enable-background:new 0 0 46.8 16;" xml:space="preserve" height="16" width="46.8">
<style type="text/css">
	.st0{fill-rule:evenodd;clip-rule:evenodd;}
	.st1{fill-rule:evenodd;clip-rule:evenodd;fill:#FFFFFF;}
	.st2{fill:#FFFFFF;}
</style>
<path class="st0" d="M38.8,16H8c-4.4,0-8-3.6-8-8v0c0-4.4,3.6-8,8-8l30.9,0c4.4,0,8,3.6,8,8v0C46.8,12.4,43.3,16,38.8,16z"/>
<path class="st1" d="M7.6,11.1h0.9V6.6H7.6V11.1z M10.2,9.3h1.1l0.4,0.7l0.7-0.5l-0.7-1.1h-1.6V8.1L12,6V4h-0.9v1.8l-0.9,1v-1h0
	C10.1,5,9.6,4.4,8.9,4.1l1.3-1.2L9.6,2.2L8,3.7L6.4,2.2L5.8,2.9l1.3,1.2C6.4,4.4,5.9,5,5.8,5.7h0v1l-0.9-1V4H4V6l1.8,2.1v0.3H4.2
	L3.5,9.5L4.2,10l0.4-0.7h1.1v0.3L4,11.3v2.5h0.9v-2.1l0.9-0.9c0,1.2,1,2.1,2.1,2.1h0.7c0.7,0,1.3-0.3,1.6-0.8
	c0.2-0.4,0.3-0.8,0.1-1.2l0.8,0.8v2.1H12v-2.5l-1.8-1.7C10.2,9.6,10.2,9.3,10.2,9.3z"/>
<g>
	<g>
		<path class="st2" d="M19.1,2.9h2.7c1.1,0,2,0.2,2.6,0.5s0.9,0.9,0.9,1.7c0,0.3-0.1,0.6-0.2,0.9s-0.3,0.5-0.4,0.6S24.2,6.9,23.9,7
			V7c0.3,0.1,0.5,0.2,0.8,0.3s0.4,0.3,0.6,0.6s0.2,0.6,0.2,1.1c0,0.5-0.1,1-0.4,1.3S24.4,11,24,11.2s-1,0.3-1.7,0.3h-3.2V2.9z
			 M20.9,6.3h1.1c0.5,0,0.9-0.1,1.1-0.2s0.3-0.4,0.3-0.7c0-0.3-0.1-0.6-0.4-0.7s-0.6-0.2-1.1-0.2h-1V6.3z M20.9,7.8V10h1.2
			c0.5,0,0.9-0.1,1.1-0.3s0.3-0.5,0.3-0.8c0-0.2,0-0.4-0.1-0.6S23.2,8,22.9,7.9S22.4,7.8,22,7.8H20.9z"/>
		<path class="st2" d="M33,5v6.6h-1.4l-0.2-0.8h-0.1c-0.1,0.2-0.3,0.4-0.5,0.5s-0.4,0.2-0.7,0.3s-0.5,0.1-0.8,0.1
			c-0.5,0-0.9-0.1-1.2-0.2s-0.6-0.4-0.8-0.8S27,9.8,27,9.2V5h1.8v3.8c0,0.5,0.1,0.8,0.3,1.1s0.4,0.4,0.8,0.4c0.4,0,0.6-0.1,0.9-0.2
			s0.4-0.4,0.4-0.7s0.1-0.7,0.1-1.2V5H33z"/>
		<path class="st2" d="M36.8,14.4c-0.9,0-1.6-0.2-2.1-0.5S34,13.2,34,12.6c0-0.4,0.1-0.7,0.4-1s0.6-0.5,1.1-0.6
			c-0.2-0.1-0.3-0.2-0.5-0.4s-0.2-0.4-0.2-0.6c0-0.2,0.1-0.5,0.2-0.6s0.4-0.3,0.6-0.5c-0.3-0.1-0.6-0.4-0.8-0.7s-0.3-0.7-0.3-1.2
			c0-0.5,0.1-0.9,0.3-1.2s0.5-0.6,0.9-0.8s0.9-0.3,1.5-0.3c0.1,0,0.3,0,0.4,0s0.3,0,0.4,0.1s0.2,0,0.3,0h2.3v0.9l-1,0.3
			c0.1,0.1,0.2,0.3,0.2,0.5s0.1,0.3,0.1,0.5c0,0.7-0.2,1.3-0.7,1.6s-1.2,0.6-2,0.6c-0.2,0-0.4,0-0.6,0c-0.1,0.1-0.2,0.1-0.2,0.2
			s-0.1,0.2-0.1,0.2s0,0.2,0.1,0.2s0.2,0.1,0.3,0.1s0.3,0,0.5,0h1.1c0.7,0,1.3,0.2,1.6,0.5s0.6,0.8,0.6,1.4c0,0.8-0.3,1.4-1,1.8
			S38,14.4,36.8,14.4z M36.9,13.2c0.4,0,0.8,0,1.1-0.1s0.5-0.2,0.7-0.3s0.2-0.3,0.2-0.5c0-0.2,0-0.3-0.1-0.4s-0.2-0.2-0.4-0.2
			s-0.4-0.1-0.7-0.1h-0.9c-0.2,0-0.4,0-0.6,0.1s-0.3,0.2-0.4,0.3s-0.2,0.3-0.2,0.4c0,0.2,0.1,0.4,0.4,0.6S36.5,13.2,36.9,13.2z
			 M37.2,8.3c0.3,0,0.6-0.1,0.7-0.3s0.2-0.5,0.2-0.8c0-0.4-0.1-0.7-0.2-0.9s-0.4-0.3-0.7-0.3c-0.3,0-0.6,0.1-0.7,0.3
			s-0.2,0.5-0.2,0.9c0,0.4,0.1,0.6,0.2,0.8S36.8,8.3,37.2,8.3z"/>
	</g>
</g>
</svg>
