<svg xmlns="http://www.w3.org/2000/svg" viewBox="0 0 58 18" height="18" width="58"><defs><style>.a,.b{fill:#fff;}.b{fill-rule:evenodd;}</style></defs><rect width="58" height="18" rx="9"/><path class="a" d="M22.08,5.22h2.66a5.52,5.52,0,0,1,2.59.48,1.74,1.74,0,0,1,.88,1.68,2.42,2.42,0,0,1-.15.88,1.72,1.72,0,0,1-.45.65,1.45,1.45,0,0,1-.72.33v0a2.24,2.24,0,0,1,.78.31,1.52,1.52,0,0,1,.55.62,2.36,2.36,0,0,1,.21,1.08,2.31,2.31,0,0,1-.38,1.33,2.42,2.42,0,0,1-1.09.86,4.47,4.47,0,0,1-1.68.29h-3.2Zm1.81,3.39H25A1.73,1.73,0,0,0,26,8.36a.88.88,0,0,0,.31-.73A.76.76,0,0,0,26,6.92a2.35,2.35,0,0,0-1.14-.21h-1Zm0,1.44v2.23h1.19A1.62,1.62,0,0,0,26.22,12a1.12,1.12,0,0,0,.32-.85,1,1,0,0,0-.14-.56.9.9,0,0,0-.47-.37,2.44,2.44,0,0,0-.91-.14Z"/><path class="a" d="M36,7.23v6.55H34.64L34.4,13h-.09a1.82,1.82,0,0,1-.53.54,2.33,2.33,0,0,1-.7.31,3,3,0,0,1-.79.1,2.71,2.71,0,0,1-1.22-.25,1.79,1.79,0,0,1-.82-.77A2.91,2.91,0,0,1,30,11.5V7.23h1.79v3.83A1.9,1.9,0,0,0,32,12.12a.92.92,0,0,0,.81.36,1.34,1.34,0,0,0,.85-.25,1.37,1.37,0,0,0,.44-.73,5.08,5.08,0,0,0,.12-1.19V7.23Z"/><path class="a" d="M39.8,16.67a3.78,3.78,0,0,1-2.09-.48A1.54,1.54,0,0,1,37,14.85a1.44,1.44,0,0,1,.37-1,2.07,2.07,0,0,1,1.09-.57,1.18,1.18,0,0,1-.48-.38.91.91,0,0,1-.21-.57.87.87,0,0,1,.22-.62,2.26,2.26,0,0,1,.63-.49,1.74,1.74,0,0,1-.82-.72,2.15,2.15,0,0,1-.3-1.16,2.22,2.22,0,0,1,.31-1.21,2,2,0,0,1,.91-.77,3.75,3.75,0,0,1,1.47-.26l.42,0,.44.06.27,0h2.29v.91l-1,.26a1.42,1.42,0,0,1,.21.47,1.77,1.77,0,0,1,.07.52A2,2,0,0,1,42.11,11a3.2,3.2,0,0,1-2,.59l-.59,0a.7.7,0,0,0-.2.23.44.44,0,0,0-.07.24.27.27,0,0,0,.1.22,1,1,0,0,0,.33.13,2.88,2.88,0,0,0,.55,0H41.3a2.55,2.55,0,0,1,1.65.46,1.67,1.67,0,0,1,.56,1.36,2,2,0,0,1-1,1.78A4.88,4.88,0,0,1,39.8,16.67Zm.08-1.17a4.46,4.46,0,0,0,1.1-.12,1.64,1.64,0,0,0,.7-.34.67.67,0,0,0,.25-.52.53.53,0,0,0-.14-.39.83.83,0,0,0-.44-.21,3.84,3.84,0,0,0-.74-.05h-.92a1.55,1.55,0,0,0-.59.1,1,1,0,0,0-.42.3.67.67,0,0,0-.15.44.64.64,0,0,0,.36.58A1.92,1.92,0,0,0,39.88,15.5Zm.29-5a.84.84,0,0,0,.73-.31,1.35,1.35,0,0,0,.24-.84,1.39,1.39,0,0,0-.24-.89,1.05,1.05,0,0,0-1.47,0,1.33,1.33,0,0,0-.25.89,1.35,1.35,0,0,0,.24.84A.89.89,0,0,0,40.17,10.53Z"/><path class="b" d="M13.8,3.75a2.53,2.53,0,0,0-3.6,0,2.48,2.48,0,0,0-.76,1.82h5.14A2.55,2.55,0,0,0,13.8,3.75Z"/><path class="b" d="M17.61,9.85H16.29V6.94l1.11-1a.43.43,0,0,0,0-.61h0a.41.41,0,0,0-.59,0h0l-1.22,1.1H8.43L7.16,5.28a.43.43,0,0,0-.6.06.44.44,0,0,0,0,.57l1.09,1v3H6.41a.43.43,0,1,0,0,.85H7.73a4.45,4.45,0,0,0,.9,2L6.92,14.24a.42.42,0,0,0-.07.6.44.44,0,0,0,.6.07l0,0L9.2,13.31a3.89,3.89,0,0,0,2,.9V9A.86.86,0,0,1,12,8.14a.8.8,0,0,1,.85.75v5.3a3.88,3.88,0,0,0,1.87-.92l1.71,1.57a.43.43,0,0,0,.28.11A.39.39,0,0,0,17,14.8a.41.41,0,0,0,0-.59h0l-1.71-1.54a4.5,4.5,0,0,0,.86-2h1.4a.43.43,0,1,0,0-.85Z"/></svg>