<svg xmlns="http://www.w3.org/2000/svg" viewBox="0 0 18 18" height="18" width="18"><defs><style>.a{fill:#fff;fill-rule:evenodd;}</style></defs><circle cx="9" cy="9" r="9"/><path class="a" d="M10.88,3.7a2.52,2.52,0,0,0-3.6,0,2.53,2.53,0,0,0-.76,1.82h5.14A2.47,2.47,0,0,0,10.88,3.7Z"/><path class="a" d="M14.69,9.79H13.37V6.88l1.11-1a.43.43,0,0,0,0-.6h0a.41.41,0,0,0-.59,0h0L12.66,6.37H5.51L4.25,5.22a.43.43,0,0,0-.61.07.43.43,0,0,0,0,.56l1.09,1V9.79H3.49a.43.43,0,0,0-.43.43.44.44,0,0,0,.43.43H4.81a4.47,4.47,0,0,0,.9,2L4,14.18a.43.43,0,1,0,.53.67l0,0,1.71-1.55a4.07,4.07,0,0,0,2,.9V8.93a.86.86,0,0,1,.86-.85.81.81,0,0,1,.86.75v5.3a3.89,3.89,0,0,0,1.86-.92l1.71,1.57a.44.44,0,0,0,.29.11.41.41,0,0,0,.31-.14.43.43,0,0,0,0-.6h0l-1.71-1.54a4.61,4.61,0,0,0,.86-2h1.4a.43.43,0,0,0,.43-.43.43.43,0,0,0-.43-.43Z"/></svg>