<?xml version="1.0" encoding="utf-8"?>
<svg version="1.1" xmlns="http://www.w3.org/2000/svg" xmlns:xlink="http://www.w3.org/1999/xlink" x="0px" y="0px"
	 viewBox="0 0 89.9 16" style="enable-background:new 0 0 89.9 16;" xml:space="preserve" height="16" width="89.9">
<style type="text/css">
	.st0{fill-rule:evenodd;clip-rule:evenodd;}
</style>
<rect x="7.3" y="7.3" class="st0" width="1.2" height="1.2"/>
<g>
	<path d="M36.7,7.3c-0.4,0-0.7,0.2-0.9,0.5s-0.3,0.8-0.3,1.5s0.1,1.1,0.3,1.4s0.5,0.5,1,0.5c0.5,0,0.8-0.1,1-0.4s0.3-0.7,0.3-1.3
		V9.3c0-0.6-0.1-1.1-0.3-1.5S37.2,7.3,36.7,7.3z"/>
	<path d="M73.6,7.3c-0.2-0.1-0.4-0.2-0.7-0.2c-0.3,0-0.6,0.1-0.9,0.3s-0.4,0.6-0.4,1h2.5c0-0.3-0.1-0.5-0.1-0.7S73.8,7.4,73.6,7.3z"
		/>
	<path d="M45,7.3c-0.2-0.1-0.4-0.2-0.7-0.2c-0.3,0-0.6,0.1-0.9,0.3s-0.4,0.6-0.4,1h2.5c0-0.3-0.1-0.5-0.1-0.7S45.2,7.4,45,7.3z"/>
	<path d="M30.1,7.5c-0.2-0.1-0.5-0.2-0.8-0.2c-0.5,0-0.8,0.2-1,0.5S28,8.6,28,9.2c0,0.4,0,0.8,0.1,1.1s0.2,0.5,0.4,0.7
		s0.5,0.2,0.8,0.2c0.3,0,0.6-0.1,0.8-0.2s0.3-0.4,0.4-0.7s0.1-0.7,0.1-1.1c0-0.4,0-0.8-0.1-1.1S30.3,7.6,30.1,7.5z"/>
	<path d="M82,0H8C3.6,0,0,3.6,0,8s3.6,8,8,8h74c4.4,0,8-3.6,8-8S86.4,0,82,0z M2.3,7.6C2.1,7.6,2,7.5,2,7.3c0-0.5,0.1-1.6,0.8-2.7
		c0.7-1.1,1.6-1.7,2-2c0.3,0,0.4,0,0.4,0.1l1.7,3.1c0,0.1,0,0.3-0.1,0.3C6.7,6.4,6.5,6.5,6.4,6.8C6.3,7.1,6.1,7.3,6.1,7.5
		c0,0.1-0.1,0.3-0.3,0.3L2.3,7.6z M10.5,13.3C10.1,13.6,9.1,14,7.9,14c-1.2,0-2.3-0.4-2.7-0.7c-0.1,0-0.1-0.3-0.1-0.4l1.7-3.1
		c0-0.1,0.1-0.1,0.3-0.1c0.3,0.1,0.4,0.1,0.7,0.1s0.5,0,0.7-0.1c0.1,0,0.3,0,0.3,0.1l1.7,3.1C10.7,13.2,10.7,13.3,10.5,13.3z
		 M13.9,7.9L10.3,8C10.1,8,10,7.9,10,7.7c0-0.3-0.1-0.5-0.3-0.7c0-0.1-0.3-0.4-0.4-0.5c-0.1,0-0.1-0.1-0.1-0.3l1.7-3.1
		c0.1-0.1,0.3-0.1,0.4-0.1c0.4,0.3,1.3,0.9,2,2c0.7,1.1,0.8,2.1,0.8,2.7C14.1,7.7,14,7.9,13.9,7.9z M20.8,9.8c0.2,0.4,0.4,0.8,0.7,1
		s0.7,0.3,1.2,0.3c0.3,0,0.7,0,1-0.1s0.7-0.2,1.1-0.3v1.5c-0.4,0.2-0.8,0.3-1.1,0.3s-0.8,0.1-1.2,0.1c-0.9,0-1.6-0.2-2.2-0.5
		s-1-0.9-1.3-1.5s-0.4-1.4-0.4-2.3c0-0.6,0.1-1.2,0.3-1.8s0.4-1,0.8-1.4s0.8-0.7,1.3-0.9s1.1-0.3,1.7-0.3c0.4,0,0.9,0.1,1.3,0.2
		s0.8,0.3,1.2,0.4l-0.6,1.5c-0.3-0.2-0.6-0.3-1-0.4s-0.6-0.2-1-0.2c-0.3,0-0.7,0.1-0.9,0.2s-0.5,0.3-0.7,0.6S20.8,6.7,20.7,7
		s-0.1,0.8-0.1,1.2C20.6,8.9,20.6,9.4,20.8,9.8z M32.3,10.7c-0.1,0.4-0.4,0.8-0.6,1.1s-0.6,0.5-1,0.7s-0.8,0.2-1.3,0.2
		c-0.5,0-0.9-0.1-1.3-0.2s-0.7-0.4-1-0.7s-0.5-0.6-0.7-1.1s-0.2-0.9-0.2-1.5c0-0.7,0.1-1.3,0.4-1.8s0.6-0.9,1.1-1.1s1-0.4,1.7-0.4
		C30,5.8,30.5,6,31,6.2s0.8,0.6,1.1,1.1s0.4,1.1,0.4,1.8C32.5,9.8,32.5,10.3,32.3,10.7z M39.7,12.5h-1.4L38,11.7h-0.1
		c-0.1,0.2-0.3,0.3-0.4,0.5s-0.4,0.3-0.6,0.3s-0.5,0.1-0.8,0.1c-0.7,0-1.3-0.3-1.8-0.9s-0.7-1.4-0.7-2.5c0-1.1,0.2-2,0.7-2.5
		s1.1-0.9,1.8-0.9c0.3,0,0.6,0,0.8,0.1s0.4,0.2,0.6,0.3s0.3,0.3,0.4,0.5h0.1c0-0.1-0.1-0.3-0.1-0.6s0-0.5,0-0.8V3.4h1.8V12.5z
		 M47.2,9.7H43c0,0.5,0.2,0.9,0.5,1.2s0.7,0.4,1.2,0.4c0.4,0,0.8,0,1.1-0.1s0.7-0.2,1.1-0.4v1.4c-0.3,0.2-0.7,0.3-1,0.4
		s-0.8,0.1-1.3,0.1c-0.7,0-1.2-0.1-1.7-0.4s-0.9-0.6-1.2-1.1s-0.4-1.1-0.4-1.9c0-0.8,0.1-1.4,0.4-1.9s0.6-0.9,1.1-1.1s1-0.4,1.6-0.4
		c0.6,0,1.1,0.1,1.6,0.3s0.8,0.6,1,1s0.4,1,0.4,1.6V9.7z M56.6,11.5c-0.2,0.4-0.6,0.7-1.1,0.9s-1,0.3-1.7,0.3c-0.3,0-0.6,0-0.9-0.1
		s-0.6-0.1-0.8-0.2s-0.5-0.2-0.7-0.3v-1.7c0.4,0.2,0.8,0.3,1.3,0.5s0.9,0.2,1.3,0.2c0.3,0,0.5,0,0.7-0.1s0.3-0.2,0.4-0.3
		s0.1-0.3,0.1-0.5c0-0.2-0.1-0.4-0.2-0.6s-0.3-0.3-0.6-0.4S53.9,9,53.6,8.8c-0.2-0.1-0.4-0.2-0.7-0.3S52.5,8.2,52.2,8
		s-0.4-0.4-0.5-0.7s-0.2-0.6-0.2-1c0-0.5,0.1-0.9,0.4-1.3s0.6-0.6,1-0.8s1-0.3,1.5-0.3c0.4,0,0.9,0.1,1.3,0.2s0.8,0.3,1.3,0.4
		l-0.6,1.4c-0.4-0.2-0.7-0.3-1.1-0.4s-0.6-0.1-1-0.1c-0.2,0-0.4,0-0.6,0.1s-0.3,0.2-0.4,0.3S53.3,6,53.3,6.2c0,0.2,0.1,0.4,0.2,0.5
		S53.8,7,54,7.1s0.5,0.3,0.9,0.5C55.4,7.8,55.7,8,56,8.2s0.5,0.5,0.7,0.8S57,9.7,57,10.1C57,10.6,56.9,11.1,56.6,11.5z M68.4,12.5
		h-1.8V8.7c0-0.5-0.1-0.8-0.2-1.1s-0.4-0.4-0.7-0.4c-0.5,0-0.8,0.2-1,0.5s-0.3,0.8-0.3,1.5v3.3h-1.8V8.7c0-0.3,0-0.6-0.1-0.8
		s-0.2-0.4-0.3-0.5s-0.3-0.2-0.6-0.2c-0.3,0-0.6,0.1-0.8,0.2s-0.3,0.4-0.4,0.7S60.2,9,60.2,9.4v3.1h-1.8V6h1.4L60,6.8h0.1
		c0.1-0.2,0.3-0.4,0.5-0.6s0.4-0.2,0.7-0.3s0.5-0.1,0.7-0.1c0.5,0,0.9,0.1,1.2,0.2s0.6,0.4,0.8,0.7h0.2c0.2-0.3,0.5-0.6,0.8-0.7
		s0.7-0.2,1.1-0.2c0.7,0,1.3,0.2,1.7,0.6s0.6,1,0.6,1.8V12.5z M75.8,9.7h-4.2c0,0.5,0.2,0.9,0.5,1.2s0.7,0.4,1.2,0.4
		c0.4,0,0.8,0,1.1-0.1s0.7-0.2,1.1-0.4v1.4c-0.3,0.2-0.7,0.3-1,0.4s-0.8,0.1-1.3,0.1c-0.7,0-1.2-0.1-1.7-0.4s-0.9-0.6-1.2-1.1
		s-0.4-1.1-0.4-1.9c0-0.8,0.1-1.4,0.4-1.9s0.6-0.9,1.1-1.1s1-0.4,1.6-0.4c0.6,0,1.1,0.1,1.6,0.3s0.8,0.6,1,1s0.4,1,0.4,1.6V9.7z
		 M79.1,12.5h-1.8V3.4h1.8V12.5z M82.7,12.5H81V3.4h1.8V12.5z"/>
</g>
</svg>
