<svg xmlns="http://www.w3.org/2000/svg" viewBox="0 0 101 18" height="18" width="101"><defs><style>.a,.b{fill:#fff;}.b{fill-rule:evenodd;}</style></defs><rect width="101" height="18" rx="9"/><path class="a" d="M26.72,6.61a2,2,0,0,0-.93.2,1.86,1.86,0,0,0-.67.58,2.68,2.68,0,0,0-.41.92,4.52,4.52,0,0,0-.14,1.21,4.67,4.67,0,0,0,.22,1.55,2,2,0,0,0,.7,1,2.06,2.06,0,0,0,1.23.34,4.68,4.68,0,0,0,1-.12,11.45,11.45,0,0,0,1.14-.33v1.52a5.5,5.5,0,0,1-1.12.34,6.58,6.58,0,0,1-1.23.1,3.92,3.92,0,0,1-2.18-.55,3.18,3.18,0,0,1-1.26-1.53,5.88,5.88,0,0,1-.41-2.31A5.89,5.89,0,0,1,23,7.73a4,4,0,0,1,.77-1.4A3.41,3.41,0,0,1,25,5.42a4.27,4.27,0,0,1,1.73-.33A5.68,5.68,0,0,1,28,5.25a6.61,6.61,0,0,1,1.22.45l-.58,1.47a8.93,8.93,0,0,0-1-.39A2.69,2.69,0,0,0,26.72,6.61Z"/><path class="a" d="M36.54,10.5A4.6,4.6,0,0,1,36.32,12,2.94,2.94,0,0,1,35.68,13a2.77,2.77,0,0,1-1,.66,3.67,3.67,0,0,1-1.33.22,3.4,3.4,0,0,1-1.26-.22,2.85,2.85,0,0,1-1-.66A3,3,0,0,1,30.42,12a4.09,4.09,0,0,1-.23-1.45,4,4,0,0,1,.38-1.85,2.72,2.72,0,0,1,1.1-1.15,3.54,3.54,0,0,1,1.71-.39A3.33,3.33,0,0,1,35,7.5a2.76,2.76,0,0,1,1.12,1.15A3.86,3.86,0,0,1,36.54,10.5ZM32,10.5a3.37,3.37,0,0,0,.14,1.08,1.16,1.16,0,0,0,1.22.88,1.25,1.25,0,0,0,.77-.22,1.32,1.32,0,0,0,.43-.66,3.68,3.68,0,0,0,.14-1.08,3.58,3.58,0,0,0-.14-1.08,1.2,1.2,0,0,0-.44-.65,1.21,1.21,0,0,0-.77-.22,1.12,1.12,0,0,0-1,.49A2.61,2.61,0,0,0,32,10.5Z"/><path class="a" d="M40.09,13.9A2.2,2.2,0,0,1,38.3,13a3.94,3.94,0,0,1-.68-2.52A4,4,0,0,1,38.31,8a2.25,2.25,0,0,1,1.82-.86,2.33,2.33,0,0,1,.83.13,2,2,0,0,1,.62.34,2.54,2.54,0,0,1,.44.49h.06c0-.12,0-.31-.08-.55a4.77,4.77,0,0,1,0-.76V4.67h1.79v9.11H42.37L42,12.93H42a2.23,2.23,0,0,1-.43.49,1.74,1.74,0,0,1-.61.35A2.28,2.28,0,0,1,40.09,13.9Zm.62-1.42a1.18,1.18,0,0,0,1-.44,2.41,2.41,0,0,0,.32-1.32v-.19a3,3,0,0,0-.29-1.46,1.15,1.15,0,0,0-1.09-.51,1,1,0,0,0-.93.51,2.71,2.71,0,0,0-.33,1.47A2.59,2.59,0,0,0,39.76,12,1.11,1.11,0,0,0,40.71,12.48Z"/><path class="a" d="M48.31,7.11a3.3,3.3,0,0,1,1.56.35,2.42,2.42,0,0,1,1,1,3.35,3.35,0,0,1,.35,1.62V11H47a1.73,1.73,0,0,0,.45,1.19,1.59,1.59,0,0,0,1.18.43,4.55,4.55,0,0,0,1.15-.13,5,5,0,0,0,1.08-.39v1.39a4.73,4.73,0,0,1-1,.35,6.74,6.74,0,0,1-1.29.11,4,4,0,0,1-1.74-.36,2.71,2.71,0,0,1-1.19-1.11,3.68,3.68,0,0,1-.43-1.88,4.19,4.19,0,0,1,.39-1.91,2.64,2.64,0,0,1,1.09-1.15A3.34,3.34,0,0,1,48.31,7.11Zm0,1.27a1.17,1.17,0,0,0-.86.33,1.63,1.63,0,0,0-.4,1h2.51a1.8,1.8,0,0,0-.15-.71A1.09,1.09,0,0,0,49,8.56,1.22,1.22,0,0,0,48.32,8.38Z"/><path class="a" d="M61,11.4a2.35,2.35,0,0,1-.37,1.33,2.4,2.4,0,0,1-1.07.87,4.38,4.38,0,0,1-1.72.3,6.36,6.36,0,0,1-.87-.06,5.29,5.29,0,0,1-.81-.17,4.38,4.38,0,0,1-.74-.29V11.7a12.62,12.62,0,0,0,1.26.48,4,4,0,0,0,1.3.22,1.8,1.8,0,0,0,.72-.12.77.77,0,0,0,.4-.32.91.91,0,0,0,.12-.47.75.75,0,0,0-.22-.55,2.43,2.43,0,0,0-.59-.43l-.85-.42c-.2-.1-.42-.21-.65-.35a3.48,3.48,0,0,1-.67-.49,2.33,2.33,0,0,1-.52-.71,2.25,2.25,0,0,1-.2-1,2.21,2.21,0,0,1,1.35-2.15,3.86,3.86,0,0,1,1.55-.29,5.26,5.26,0,0,1,1.27.16A7.19,7.19,0,0,1,61,5.7l-.59,1.41a9.74,9.74,0,0,0-1.06-.37,3.4,3.4,0,0,0-1-.13,1.44,1.44,0,0,0-.58.1.85.85,0,0,0-.36.31.84.84,0,0,0,0,1,2.1,2.1,0,0,0,.54.4q.36.19.9.45A6.13,6.13,0,0,1,60,9.49a2.35,2.35,0,0,1,.72.79A2.26,2.26,0,0,1,61,11.4Z"/><path class="a" d="M70.12,7.11a2.28,2.28,0,0,1,1.68.57,2.51,2.51,0,0,1,.57,1.83v4.27H70.58V10a1.89,1.89,0,0,0-.24-1.06.83.83,0,0,0-.74-.36,1.07,1.07,0,0,0-1,.51,2.85,2.85,0,0,0-.3,1.45v3.28H66.5V10a2.53,2.53,0,0,0-.1-.79.87.87,0,0,0-.88-.63,1.11,1.11,0,0,0-.78.25,1.37,1.37,0,0,0-.41.73,5,5,0,0,0-.12,1.18v3.08H62.42V7.23h1.37l.24.84h.1a1.66,1.66,0,0,1,.5-.55,2.22,2.22,0,0,1,.66-.31,2.69,2.69,0,0,1,.74-.1,3,3,0,0,1,1.22.23,1.67,1.67,0,0,1,.78.73h.15A1.73,1.73,0,0,1,69,7.34,2.87,2.87,0,0,1,70.12,7.11Z"/><path class="a" d="M76.91,7.11a3.3,3.3,0,0,1,1.56.35,2.42,2.42,0,0,1,1,1,3.46,3.46,0,0,1,.35,1.62V11H75.62a1.73,1.73,0,0,0,.45,1.19,1.59,1.59,0,0,0,1.18.43,4.6,4.6,0,0,0,1.15-.13,4.79,4.79,0,0,0,1.07-.39v1.39a4.48,4.48,0,0,1-1,.35,6.74,6.74,0,0,1-1.29.11,4,4,0,0,1-1.74-.36,2.71,2.71,0,0,1-1.19-1.11,3.68,3.68,0,0,1-.43-1.88,4.19,4.19,0,0,1,.39-1.91,2.64,2.64,0,0,1,1.09-1.15A3.34,3.34,0,0,1,76.91,7.11Zm0,1.27a1.17,1.17,0,0,0-.86.33,1.63,1.63,0,0,0-.4,1h2.51A1.8,1.8,0,0,0,78,9.05a1.09,1.09,0,0,0-.41-.49A1.22,1.22,0,0,0,76.92,8.38Z"/><path class="a" d="M83.08,13.78H81.3V4.67h1.78Z"/><path class="a" d="M86.75,13.78H85V4.67h1.79Z"/><path class="b" d="M13,6.26l1.79-3.08a.36.36,0,0,1,.3-.17h.18a6.42,6.42,0,0,1,3.19,5.54.33.33,0,0,1-.33.35H14.51a.33.33,0,0,1-.35-.33v0A2.19,2.19,0,0,0,13.08,6.7a.37.37,0,0,1-.1-.44Z"/><path class="b" d="M13.11,10.47a.23.23,0,0,1,.18-.05.34.34,0,0,1,.3.17l1.79,3.08a.22.22,0,0,1,0,.16.4.4,0,0,1-.18.33,6.52,6.52,0,0,1-6.4,0,.38.38,0,0,1-.12-.49l1.84-3.08a.33.33,0,0,1,.33-.17.25.25,0,0,1,.17,0,2.2,2.2,0,0,0,2.1.05Z"/><path class="b" d="M8.8,3.07a.38.38,0,0,1,.51.12l1.78,3.08a.36.36,0,0,1-.12.49h0A2.2,2.2,0,0,0,9.9,8.61.33.33,0,0,1,9.57,9H6a.38.38,0,0,1-.39-.35A6.44,6.44,0,0,1,8.8,3.07Z"/></svg>