<svg xmlns="http://www.w3.org/2000/svg" viewBox="0 0 18 18" height="18" width="18"><defs><style>.a{fill:#fff;fill-rule:evenodd;}</style></defs><circle cx="9" cy="9" r="9"/><path class="a" d="M10,6.26l1.79-3.08a.36.36,0,0,1,.3-.17h.18a6.42,6.42,0,0,1,3.19,5.54.33.33,0,0,1-.33.35H11.51a.33.33,0,0,1-.35-.33v0A2.19,2.19,0,0,0,10.08,6.7a.37.37,0,0,1-.1-.44Z"/><path class="a" d="M10.11,10.47a.23.23,0,0,1,.18-.05.34.34,0,0,1,.3.17l1.79,3.08a.22.22,0,0,1,0,.16.4.4,0,0,1-.18.33,6.52,6.52,0,0,1-6.4,0,.38.38,0,0,1-.12-.49l1.84-3.08a.33.33,0,0,1,.33-.17.25.25,0,0,1,.17,0,2.2,2.2,0,0,0,2.1.05Z"/><path class="a" d="M5.8,3.07a.38.38,0,0,1,.51.12L8.09,6.27A.36.36,0,0,1,8,6.76H8A2.2,2.2,0,0,0,6.9,8.61.33.33,0,0,1,6.57,9H3a.38.38,0,0,1-.39-.35A6.44,6.44,0,0,1,5.8,3.07Z"/></svg>