<svg xmlns="http://www.w3.org/2000/svg" viewBox="0 0 136 18" height="18" width="136"><defs><style>.a,.b{fill:#fff;}.b{fill-rule:evenodd;}</style></defs><rect width="136" height="18" rx="9"/><path class="a" d="M28.13,11.4a2.43,2.43,0,0,1-.36,1.33,2.49,2.49,0,0,1-1.08.87,4.36,4.36,0,0,1-1.71.3,6.15,6.15,0,0,1-.87-.06,5.17,5.17,0,0,1-.82-.17,4.74,4.74,0,0,1-.74-.29V11.7a12.8,12.8,0,0,0,1.27.48,3.94,3.94,0,0,0,1.3.22,1.78,1.78,0,0,0,.71-.12.73.73,0,0,0,.4-.32.91.91,0,0,0,.12-.47.79.79,0,0,0-.21-.55,2.73,2.73,0,0,0-.6-.43l-.85-.42c-.2-.1-.42-.21-.65-.35a3.48,3.48,0,0,1-.67-.49,2.51,2.51,0,0,1-.52-.71,2.39,2.39,0,0,1-.2-1A2.39,2.39,0,0,1,23,6.22a2.34,2.34,0,0,1,1-.84,3.81,3.81,0,0,1,1.54-.29,5.34,5.34,0,0,1,1.28.16,7.4,7.4,0,0,1,1.26.45l-.58,1.41c-.4-.16-.75-.28-1.06-.37a3.47,3.47,0,0,0-1-.13,1.47,1.47,0,0,0-.58.1.85.85,0,0,0-.36.31.84.84,0,0,0-.12.45A.81.81,0,0,0,24.6,8a2.1,2.1,0,0,0,.54.4l.9.45a6.6,6.6,0,0,1,1.13.65,2.32,2.32,0,0,1,.71.79A2.26,2.26,0,0,1,28.13,11.4Z"/><path class="a" d="M32.25,7.11a3.32,3.32,0,0,1,1.56.35,2.42,2.42,0,0,1,1,1,3.46,3.46,0,0,1,.35,1.62V11H31a1.73,1.73,0,0,0,.45,1.19,1.59,1.59,0,0,0,1.18.43,4.6,4.6,0,0,0,1.15-.13,4.79,4.79,0,0,0,1.07-.39v1.39a4.48,4.48,0,0,1-1,.35,6.74,6.74,0,0,1-1.29.11,4,4,0,0,1-1.74-.36,2.71,2.71,0,0,1-1.19-1.11,3.68,3.68,0,0,1-.43-1.88,4.19,4.19,0,0,1,.39-1.91,2.68,2.68,0,0,1,1.08-1.15A3.41,3.41,0,0,1,32.25,7.11Zm0,1.27a1.17,1.17,0,0,0-.86.33,1.63,1.63,0,0,0-.4,1h2.51a1.8,1.8,0,0,0-.15-.71A1.09,1.09,0,0,0,33,8.56,1.22,1.22,0,0,0,32.26,8.38Z"/><path class="a" d="M39.3,13.9a3.67,3.67,0,0,1-1.66-.35,2.32,2.32,0,0,1-1-1.1,4.4,4.4,0,0,1-.36-1.91,4,4,0,0,1,.41-2,2.53,2.53,0,0,1,1.13-1.11,3.71,3.71,0,0,1,1.68-.36,4.5,4.5,0,0,1,1.17.13,4.74,4.74,0,0,1,.86.31L41,8.94a6.93,6.93,0,0,0-.79-.28,2.57,2.57,0,0,0-.72-.11,1.26,1.26,0,0,0-.78.22,1.31,1.31,0,0,0-.47.66,3.44,3.44,0,0,0-.15,1.1,3.33,3.33,0,0,0,.16,1.08,1.33,1.33,0,0,0,.48.64,1.41,1.41,0,0,0,.76.2,3,3,0,0,0,1-.15,3.88,3.88,0,0,0,.84-.42v1.53a2.86,2.86,0,0,1-.86.38A5.07,5.07,0,0,1,39.3,13.9Z"/><path class="a" d="M48.82,7.23v6.55H47.45L47.21,13h-.1a1.79,1.79,0,0,1-.52.54,2.58,2.58,0,0,1-.7.31,3,3,0,0,1-.79.1,2.79,2.79,0,0,1-1.23-.25,1.77,1.77,0,0,1-.81-.77,2.91,2.91,0,0,1-.29-1.38V7.23h1.79v3.83a1.82,1.82,0,0,0,.25,1.06.92.92,0,0,0,.8.36,1.2,1.2,0,0,0,1.3-1A5.08,5.08,0,0,0,47,10.31V7.23Z"/><path class="a" d="M54.35,7.11h.31l.29,0-.13,1.68a1.09,1.09,0,0,0-.25-.05h-.28a2.52,2.52,0,0,0-.67.09,1.65,1.65,0,0,0-.58.28,1.34,1.34,0,0,0-.41.52,1.81,1.81,0,0,0-.15.78v3.33H50.69V7.23h1.36l.26,1.1h.09a3.07,3.07,0,0,1,.48-.61,2.62,2.62,0,0,1,.66-.44A2,2,0,0,1,54.35,7.11Z"/><path class="a" d="M57,4.67a1.25,1.25,0,0,1,.68.18.73.73,0,0,1,.29.69.76.76,0,0,1-.29.69,1.33,1.33,0,0,1-1.37,0,.77.77,0,0,1-.28-.69.75.75,0,0,1,.28-.69A1.27,1.27,0,0,1,57,4.67Zm.89,2.56v6.55H56.14V7.23Z"/><path class="a" d="M62.56,12.48a2.78,2.78,0,0,0,.58-.06,5.62,5.62,0,0,0,.55-.15V13.6a3.32,3.32,0,0,1-.71.22,5.46,5.46,0,0,1-.93.08,2.69,2.69,0,0,1-1-.19,1.52,1.52,0,0,1-.74-.66A2.84,2.84,0,0,1,60,11.73V8.57h-.86V7.82l1-.6.51-1.38h1.15V7.23h1.83V8.57H61.79v3.16a.7.7,0,0,0,.21.56A.79.79,0,0,0,62.56,12.48Z"/><path class="a" d="M64.08,7.23h2l1.24,3.69c0,.12.07.23.1.36s0,.24.07.37,0,.26,0,.4h0a5.18,5.18,0,0,1,.1-.59,5.44,5.44,0,0,1,.15-.54L69,7.23H70.9l-2.77,7.39a3.55,3.55,0,0,1-.66,1.13,2.46,2.46,0,0,1-.92.69,2.93,2.93,0,0,1-1.16.23,3.8,3.8,0,0,1-.52,0l-.38-.06V15.15a1.82,1.82,0,0,0,.31,0,2.42,2.42,0,0,0,.39,0,1.29,1.29,0,0,0,.64-.15,1.57,1.57,0,0,0,.46-.43,2.39,2.39,0,0,0,.28-.58l.11-.32Z"/><path class="a" d="M82.12,13.78H80.31V10.09h-3.4v3.69H75.1V5.22h1.81V8.57h3.4V5.22h1.81Z"/><path class="a" d="M90.09,10.5A4.33,4.33,0,0,1,89.87,12,2.81,2.81,0,0,1,89.23,13a2.73,2.73,0,0,1-1,.66,3.75,3.75,0,0,1-1.33.22,3.46,3.46,0,0,1-1.27-.22,2.82,2.82,0,0,1-1-.66A3,3,0,0,1,84,12a4.32,4.32,0,0,1-.23-1.45,4,4,0,0,1,.39-1.85,2.6,2.6,0,0,1,1.1-1.15,3.5,3.5,0,0,1,1.7-.39,3.37,3.37,0,0,1,1.64.39,2.8,2.8,0,0,1,1.11,1.15A3.75,3.75,0,0,1,90.09,10.5Zm-4.53,0a3.68,3.68,0,0,0,.14,1.08,1.33,1.33,0,0,0,.44.66,1.26,1.26,0,0,0,.78.22,1.21,1.21,0,0,0,.77-.22,1.33,1.33,0,0,0,.44-.66,3.71,3.71,0,0,0,.13-1.08,3.62,3.62,0,0,0-.13-1.08,1.16,1.16,0,0,0-1.22-.87,1.13,1.13,0,0,0-1,.49A2.7,2.7,0,0,0,85.56,10.5Z"/><path class="a" d="M94.33,12.48a2.76,2.76,0,0,0,.57-.06,5.62,5.62,0,0,0,.55-.15V13.6a3.32,3.32,0,0,1-.71.22,5.28,5.28,0,0,1-.93.08,2.69,2.69,0,0,1-1-.19,1.5,1.5,0,0,1-.73-.66,2.71,2.71,0,0,1-.27-1.32V8.57h-.85V7.82l1-.6.52-1.38h1.14V7.23h1.83V8.57H93.55v3.16a.7.7,0,0,0,.21.56A.82.82,0,0,0,94.33,12.48Z"/><path class="a" d="M101.35,11.84A2,2,0,0,1,101,13a1.92,1.92,0,0,1-.93.69,4.31,4.31,0,0,1-1.55.24,6.55,6.55,0,0,1-1.17-.09,4.63,4.63,0,0,1-1-.29V12a7.77,7.77,0,0,0,1.15.4,4.49,4.49,0,0,0,1.07.15,1.41,1.41,0,0,0,.75-.15.5.5,0,0,0,.13-.7,1.13,1.13,0,0,0-.39-.3c-.2-.11-.51-.26-.93-.44a6.23,6.23,0,0,1-1-.52,1.76,1.76,0,0,1-.59-.63,1.89,1.89,0,0,1-.19-.91,1.52,1.52,0,0,1,.7-1.37A3.44,3.44,0,0,1,99,7.11a5.08,5.08,0,0,1,2.31.52l-.54,1.28a9.7,9.7,0,0,0-.92-.34A2.93,2.93,0,0,0,99,8.43a1.33,1.33,0,0,0-.6.11.35.35,0,0,0-.2.32.41.41,0,0,0,.11.28,1.33,1.33,0,0,0,.4.28c.19.09.48.22.87.38a6.13,6.13,0,0,1,1,.48,1.68,1.68,0,0,1,.63.61A1.81,1.81,0,0,1,101.35,11.84Z"/><path class="a" d="M106.39,7.11a2.2,2.2,0,0,1,1.79.86,4,4,0,0,1,.68,2.53,4.9,4.9,0,0,1-.32,1.87,2.54,2.54,0,0,1-.89,1.14,2.27,2.27,0,0,1-1.31.39,2.39,2.39,0,0,1-.81-.12,1.88,1.88,0,0,1-.58-.31,2.72,2.72,0,0,1-.42-.41h-.09c0,.16,0,.32.07.48s0,.33,0,.48v2.65h-1.79V7.23h1.46l.25.85h.08A2.43,2.43,0,0,1,105,7.6a1.88,1.88,0,0,1,.6-.36A2.33,2.33,0,0,1,106.39,7.11Zm-.58,1.43a1.25,1.25,0,0,0-.74.19,1,1,0,0,0-.4.58,3.34,3.34,0,0,0-.14,1v.19a4.18,4.18,0,0,0,.12,1.08,1.22,1.22,0,0,0,.4.66,1.18,1.18,0,0,0,.79.23,1,1,0,0,0,.67-.23,1.34,1.34,0,0,0,.4-.67,4.09,4.09,0,0,0,.13-1.08,2.76,2.76,0,0,0-.3-1.44A1,1,0,0,0,105.81,8.54Z"/><path class="a" d="M116.29,10.5a4.33,4.33,0,0,1-.22,1.45,2.94,2.94,0,0,1-.64,1.07,2.69,2.69,0,0,1-1,.66,3.66,3.66,0,0,1-1.32.22,3.42,3.42,0,0,1-1.27-.22,2.73,2.73,0,0,1-1-.66,2.85,2.85,0,0,1-.66-1.07,4.09,4.09,0,0,1-.23-1.45,4.12,4.12,0,0,1,.38-1.85,2.68,2.68,0,0,1,1.11-1.15,3.47,3.47,0,0,1,1.7-.39,3.33,3.33,0,0,1,1.63.39,2.76,2.76,0,0,1,1.12,1.15A3.86,3.86,0,0,1,116.29,10.5Zm-4.53,0a3.68,3.68,0,0,0,.14,1.08,1.16,1.16,0,0,0,1.22.88,1.23,1.23,0,0,0,.77-.22,1.26,1.26,0,0,0,.43-.66,3.37,3.37,0,0,0,.14-1.08,3.29,3.29,0,0,0-.14-1.08,1.19,1.19,0,0,0-.43-.65,1.26,1.26,0,0,0-.78-.22,1.12,1.12,0,0,0-1,.49A2.7,2.7,0,0,0,111.76,10.5Z"/><path class="a" d="M120.53,12.48a2.76,2.76,0,0,0,.57-.06,5.62,5.62,0,0,0,.55-.15V13.6a3.32,3.32,0,0,1-.71.22,5.28,5.28,0,0,1-.93.08,2.69,2.69,0,0,1-1.05-.19,1.46,1.46,0,0,1-.73-.66,2.71,2.71,0,0,1-.27-1.32V8.57h-.86V7.82l1-.6.51-1.38h1.15V7.23h1.83V8.57h-1.83v3.16a.7.7,0,0,0,.21.56A.8.8,0,0,0,120.53,12.48Z"/><path class="b" d="M17.28,4.93a.87.87,0,0,0-.57-.66L12.22,3a.79.79,0,0,0-.43,0L7.3,4.27a.82.82,0,0,0-.57.66c-.07.49-.63,4.81,1,7.11a7.63,7.63,0,0,0,4.1,3h.38a7.68,7.68,0,0,0,4.12-3C17.89,9.74,17.34,5.42,17.28,4.93ZM15.68,9A5.46,5.46,0,0,1,15,11.08a6.77,6.77,0,0,1-2.87,2.2V9Zm-3.6-4.27V9H8.31a22.31,22.31,0,0,1,0-3.27Z"/></svg>