<?xml version="1.0" encoding="utf-8"?>
<svg version="1.1" xmlns="http://www.w3.org/2000/svg" xmlns:xlink="http://www.w3.org/1999/xlink" x="0px" y="0px"
	 viewBox="0 0 123 16" style="enable-background:new 0 0 123 16;" xml:space="preserve" height="16" width="123">
<style type="text/css">
	.st0{fill:none;stroke:#FFFFFF;stroke-width:1.3029;stroke-linecap:round;stroke-linejoin:round;stroke-miterlimit:1.6162;}
	.st1{fill-rule:evenodd;clip-rule:evenodd;fill:#FFFFFF;}
	.st2{fill:#FFFFFF;}
</style>
<path d="M115,16H8c-4.4,0-8-3.6-8-8v0c0-4.4,3.6-8,8-8l107,0c4.4,0,8,3.6,8,8v0C123,12.4,119.4,16,115,16z"/>
<g>
	<path class="st0" d="M10,3.6C9.6,2.8,8.9,2.3,8,2.3c-1.2,0-2.2,1.2-2.2,2.6v4.8"/>
	<path class="st1" d="M5.6,6h4.8c1.1,0,1.9,0.9,1.9,1.9v3.9c0,1.1-0.9,1.9-1.9,1.9H5.6c-1.1,0-1.9-0.9-1.9-1.9V7.9
		C3.7,6.8,4.5,6,5.6,6z M7.5,11h1.1c0-0.2,0-0.4,0.1-0.5c0-0.1,0.1-0.2,0.3-0.4l0.4-0.4c0.2-0.2,0.3-0.4,0.4-0.5
		C9.8,9,9.9,8.8,9.9,8.6c0-0.5-0.2-0.9-0.5-1.1C9.1,7.2,8.6,7.1,8.1,7.1c-0.6,0-1,0.1-1.3,0.4C6.4,7.8,6.3,8.2,6.3,8.7h1.3
		c0-0.2,0.1-0.3,0.1-0.5s0.2-0.2,0.4-0.2c0.3,0,0.5,0.2,0.5,0.6c0,0.2,0,0.3-0.1,0.4C8.3,9.2,8.2,9.4,8,9.5
		c-0.2,0.2-0.3,0.3-0.4,0.6C7.5,10.3,7.5,10.6,7.5,11L7.5,11z M7.3,12.1c0,0.2,0.1,0.3,0.2,0.5c0.1,0.1,0.3,0.2,0.5,0.2
		c0.2,0,0.4-0.1,0.5-0.2c0.1-0.1,0.2-0.3,0.2-0.5c0-0.2-0.1-0.3-0.2-0.5c-0.1-0.1-0.3-0.2-0.5-0.2c-0.2,0-0.4,0.1-0.5,0.2
		C7.4,11.8,7.3,11.9,7.3,12.1L7.3,12.1z"/>
</g>
<g>
	<g>
		<path class="st2" d="M24.1,9.1c0,0.5-0.1,0.9-0.4,1.3s-0.6,0.7-1.1,0.9s-1,0.3-1.7,0.3c-0.3,0-0.6,0-0.9-0.1s-0.6-0.1-0.8-0.2
			s-0.5-0.2-0.7-0.3V9.4c0.4,0.2,0.8,0.3,1.3,0.5s0.9,0.2,1.3,0.2c0.3,0,0.5,0,0.7-0.1s0.3-0.2,0.4-0.3s0.1-0.3,0.1-0.5
			c0-0.2-0.1-0.4-0.2-0.6s-0.3-0.3-0.6-0.4S21,8,20.7,7.8c-0.2-0.1-0.4-0.2-0.7-0.3S19.6,7.2,19.4,7S19,6.5,18.9,6.3s-0.2-0.6-0.2-1
			c0-0.5,0.1-0.9,0.4-1.3s0.6-0.6,1-0.8s1-0.3,1.5-0.3c0.4,0,0.9,0.1,1.3,0.2s0.8,0.3,1.3,0.4l-0.6,1.4c-0.4-0.2-0.7-0.3-1.1-0.4
			s-0.6-0.1-1-0.1c-0.2,0-0.4,0-0.6,0.1s-0.3,0.2-0.4,0.3S20.4,5,20.4,5.2c0,0.2,0.1,0.4,0.2,0.5s0.3,0.3,0.5,0.4s0.5,0.3,0.9,0.5
			c0.4,0.2,0.8,0.4,1.1,0.6s0.5,0.5,0.7,0.8S24.1,8.7,24.1,9.1z"/>
		<path class="st2" d="M28.2,4.8c0.6,0,1.1,0.1,1.6,0.3s0.8,0.6,1,1s0.4,1,0.4,1.6v0.9H27c0,0.5,0.2,0.9,0.5,1.2s0.7,0.4,1.2,0.4
			c0.4,0,0.8,0,1.1-0.1s0.7-0.2,1.1-0.4v1.4c-0.3,0.2-0.7,0.3-1,0.4s-0.8,0.1-1.3,0.1c-0.7,0-1.2-0.1-1.7-0.4s-0.9-0.6-1.2-1.1
			S25.1,9,25.1,8.3c0-0.8,0.1-1.4,0.4-1.9s0.6-0.9,1.1-1.1S27.6,4.8,28.2,4.8z M28.3,6.1c-0.3,0-0.6,0.1-0.9,0.3S27,7,27,7.5h2.5
			c0-0.3-0.1-0.5-0.1-0.7S29.1,6.4,29,6.3S28.5,6.1,28.3,6.1z"/>
		<path class="st2" d="M35.3,11.6c-0.6,0-1.2-0.1-1.7-0.4s-0.8-0.6-1-1.1S32.2,9,32.2,8.3c0-0.8,0.1-1.5,0.4-2s0.6-0.9,1.1-1.1
			s1-0.4,1.7-0.4c0.5,0,0.8,0,1.2,0.1s0.6,0.2,0.9,0.3L37,6.7c-0.3-0.1-0.5-0.2-0.8-0.3s-0.5-0.1-0.7-0.1c-0.3,0-0.6,0.1-0.8,0.2
			s-0.4,0.4-0.5,0.7s-0.2,0.7-0.2,1.1c0,0.4,0.1,0.8,0.2,1.1s0.3,0.5,0.5,0.6s0.5,0.2,0.8,0.2c0.4,0,0.7,0,1-0.1s0.6-0.2,0.8-0.4
			v1.5c-0.3,0.2-0.6,0.3-0.9,0.4S35.8,11.6,35.3,11.6z"/>
		<path class="st2" d="M44.8,5v6.6h-1.4l-0.2-0.8h-0.1c-0.1,0.2-0.3,0.4-0.5,0.5s-0.4,0.2-0.7,0.3s-0.5,0.1-0.8,0.1
			c-0.5,0-0.9-0.1-1.2-0.2s-0.6-0.4-0.8-0.8s-0.3-0.8-0.3-1.4V5h1.8v3.8c0,0.5,0.1,0.8,0.3,1.1s0.4,0.4,0.8,0.4
			c0.4,0,0.6-0.1,0.9-0.2s0.4-0.4,0.4-0.7S43,8.5,43,8V5H44.8z"/>
		<path class="st2" d="M50.3,4.8c0.1,0,0.2,0,0.3,0s0.2,0,0.3,0l-0.1,1.7c-0.1,0-0.1,0-0.2,0s-0.2,0-0.3,0c-0.2,0-0.5,0-0.7,0.1
			S49.2,6.7,49,6.9s-0.3,0.3-0.4,0.5s-0.1,0.5-0.1,0.8v3.3h-1.8V5H48l0.3,1.1h0.1c0.1-0.2,0.3-0.4,0.5-0.6s0.4-0.3,0.7-0.4
			S50.1,4.8,50.3,4.8z"/>
		<path class="st2" d="M53,2.4c0.3,0,0.5,0.1,0.7,0.2S54,2.9,54,3.3c0,0.3-0.1,0.6-0.3,0.7S53.3,4.1,53,4.1c-0.3,0-0.5-0.1-0.7-0.2
			s-0.3-0.4-0.3-0.7c0-0.3,0.1-0.6,0.3-0.7S52.8,2.4,53,2.4z M53.9,5v6.6h-1.8V5H53.9z"/>
		<path class="st2" d="M58.6,10.2c0.2,0,0.4,0,0.6-0.1s0.4-0.1,0.6-0.1v1.3c-0.2,0.1-0.4,0.2-0.7,0.2s-0.6,0.1-0.9,0.1
			c-0.4,0-0.7-0.1-1.1-0.2s-0.6-0.3-0.7-0.7S56,10,56,9.5V6.3h-0.9V5.5l1-0.6l0.5-1.4h1.1V5h1.8v1.3h-1.8v3.2c0,0.2,0.1,0.4,0.2,0.6
			S58.3,10.2,58.6,10.2z"/>
		<path class="st2" d="M60.1,5h2l1.2,3.7c0,0.1,0.1,0.2,0.1,0.4s0.1,0.2,0.1,0.4s0,0.3,0,0.4h0c0-0.2,0.1-0.4,0.1-0.6
			s0.1-0.4,0.2-0.5L65,5h1.9l-2.8,7.4c-0.2,0.5-0.4,0.8-0.7,1.1s-0.6,0.5-0.9,0.7s-0.7,0.2-1.2,0.2c-0.2,0-0.4,0-0.5,0
			s-0.3,0-0.4-0.1v-1.4c0.1,0,0.2,0,0.3,0.1s0.3,0,0.4,0c0.2,0,0.5-0.1,0.6-0.2s0.3-0.2,0.5-0.4s0.2-0.4,0.3-0.6l0.1-0.3L60.1,5z"/>
		<path class="st2" d="M78.1,11.5h-1.8V7.8h-3.4v3.7h-1.8V2.9h1.8v3.4h3.4V2.9h1.8V11.5z"/>
		<path class="st2" d="M86.1,8.2c0,0.5-0.1,1-0.2,1.5s-0.4,0.8-0.6,1.1s-0.6,0.5-1,0.7s-0.8,0.2-1.3,0.2c-0.5,0-0.9-0.1-1.3-0.2
			s-0.7-0.4-1-0.7s-0.5-0.6-0.7-1.1s-0.2-0.9-0.2-1.5c0-0.7,0.1-1.3,0.4-1.8s0.6-0.9,1.1-1.1s1-0.4,1.7-0.4c0.6,0,1.2,0.1,1.6,0.4
			s0.8,0.6,1.1,1.1S86.1,7.5,86.1,8.2z M81.6,8.2c0,0.4,0,0.8,0.1,1.1s0.2,0.5,0.4,0.7s0.5,0.2,0.8,0.2c0.3,0,0.6-0.1,0.8-0.2
			s0.3-0.4,0.4-0.7s0.1-0.7,0.1-1.1c0-0.4,0-0.8-0.1-1.1s-0.2-0.5-0.4-0.6s-0.5-0.2-0.8-0.2c-0.5,0-0.8,0.2-1,0.5S81.6,7.6,81.6,8.2
			z"/>
		<path class="st2" d="M90.3,10.2c0.2,0,0.4,0,0.6-0.1s0.4-0.1,0.6-0.1v1.3c-0.2,0.1-0.4,0.2-0.7,0.2s-0.6,0.1-0.9,0.1
			c-0.4,0-0.7-0.1-1.1-0.2s-0.6-0.3-0.7-0.7s-0.3-0.8-0.3-1.3V6.3h-0.9V5.5l1-0.6l0.5-1.4h1.1V5h1.8v1.3h-1.8v3.2
			c0,0.2,0.1,0.4,0.2,0.6S90.1,10.2,90.3,10.2z"/>
		<path class="st2" d="M97.3,9.6c0,0.4-0.1,0.8-0.3,1.1s-0.5,0.5-0.9,0.7s-0.9,0.2-1.5,0.2c-0.5,0-0.8,0-1.2-0.1s-0.7-0.2-1-0.3V9.8
			c0.4,0.2,0.7,0.3,1.1,0.4s0.8,0.2,1.1,0.2c0.3,0,0.6-0.1,0.7-0.2s0.2-0.2,0.2-0.4c0-0.1,0-0.2-0.1-0.3s-0.2-0.2-0.4-0.3
			s-0.5-0.3-0.9-0.4c-0.4-0.2-0.7-0.3-1-0.5s-0.5-0.4-0.6-0.6S92.4,7,92.4,6.7c0-0.6,0.2-1.1,0.7-1.4s1.1-0.5,1.9-0.5
			c0.4,0,0.8,0,1.2,0.1s0.7,0.2,1.1,0.4l-0.5,1.3c-0.3-0.1-0.6-0.3-0.9-0.3s-0.6-0.1-0.9-0.1c-0.3,0-0.5,0-0.6,0.1s-0.2,0.2-0.2,0.3
			c0,0.1,0,0.2,0.1,0.3s0.2,0.2,0.4,0.3s0.5,0.2,0.9,0.4c0.4,0.2,0.7,0.3,1,0.5s0.5,0.4,0.6,0.6S97.3,9.2,97.3,9.6z"/>
		<path class="st2" d="M102.4,4.8c0.7,0,1.3,0.3,1.8,0.9s0.7,1.4,0.7,2.5c0,0.7-0.1,1.4-0.3,1.9s-0.5,0.9-0.9,1.1s-0.8,0.4-1.3,0.4
			c-0.3,0-0.6,0-0.8-0.1s-0.4-0.2-0.6-0.3s-0.3-0.3-0.4-0.4h-0.1c0,0.2,0.1,0.3,0.1,0.5s0,0.3,0,0.5v2.6h-1.8V5h1.5l0.3,0.8h0.1
			c0.1-0.2,0.3-0.3,0.4-0.5s0.4-0.3,0.6-0.4S102.1,4.8,102.4,4.8z M101.8,6.3c-0.3,0-0.6,0.1-0.7,0.2s-0.3,0.3-0.4,0.6
			s-0.1,0.6-0.1,1v0.2c0,0.4,0,0.8,0.1,1.1s0.2,0.5,0.4,0.7s0.5,0.2,0.8,0.2c0.3,0,0.5-0.1,0.7-0.2s0.3-0.4,0.4-0.7s0.1-0.7,0.1-1.1
			c0-0.6-0.1-1.1-0.3-1.4S102.2,6.3,101.8,6.3z"/>
		<path class="st2" d="M112.3,8.2c0,0.5-0.1,1-0.2,1.5s-0.4,0.8-0.6,1.1s-0.6,0.5-1,0.7s-0.8,0.2-1.3,0.2c-0.5,0-0.9-0.1-1.3-0.2
			s-0.7-0.4-1-0.7s-0.5-0.6-0.7-1.1s-0.2-0.9-0.2-1.5c0-0.7,0.1-1.3,0.4-1.8s0.6-0.9,1.1-1.1s1-0.4,1.7-0.4c0.6,0,1.2,0.1,1.6,0.4
			s0.8,0.6,1.1,1.1S112.3,7.5,112.3,8.2z M107.8,8.2c0,0.4,0,0.8,0.1,1.1s0.2,0.5,0.4,0.7s0.5,0.2,0.8,0.2c0.3,0,0.6-0.1,0.8-0.2
			s0.3-0.4,0.4-0.7s0.1-0.7,0.1-1.1c0-0.4,0-0.8-0.1-1.1s-0.2-0.5-0.4-0.6s-0.5-0.2-0.8-0.2c-0.5,0-0.8,0.2-1,0.5
			S107.8,7.6,107.8,8.2z"/>
		<path class="st2" d="M116.5,10.2c0.2,0,0.4,0,0.6-0.1s0.4-0.1,0.6-0.1v1.3c-0.2,0.1-0.4,0.2-0.7,0.2s-0.6,0.1-0.9,0.1
			c-0.4,0-0.7-0.1-1.1-0.2s-0.6-0.3-0.7-0.7S114,10,114,9.5V6.3h-0.9V5.5l1-0.6l0.5-1.4h1.1V5h1.8v1.3h-1.8v3.2
			c0,0.2,0.1,0.4,0.2,0.6S116.3,10.2,116.5,10.2z"/>
	</g>
</g>
</svg>
