<?xml version="1.0" encoding="utf-8"?>
<svg version="1.1" xmlns="http://www.w3.org/2000/svg" xmlns:xlink="http://www.w3.org/1999/xlink" x="0px" y="0px"
	 viewBox="0 0 69.5 16" style="enable-background:new 0 0 69.5 16;" xml:space="preserve" height="16" width="69.5">
<style type="text/css">
	.st0{fill:#D4333F;}
</style>
<g>
	<path class="st0" d="M34.2,7.5c-0.2-0.1-0.5-0.2-0.8-0.2c-0.5,0-0.8,0.2-1,0.5s-0.3,0.8-0.3,1.5c0,0.4,0,0.8,0.1,1.1
		s0.2,0.5,0.4,0.7s0.5,0.2,0.8,0.2c0.3,0,0.6-0.1,0.8-0.2s0.3-0.4,0.4-0.7s0.1-0.7,0.1-1.1c0-0.4,0-0.8-0.1-1.1S34.4,7.6,34.2,7.5z"
		/>
	<path class="st0" d="M55.1,7.3c-0.2-0.1-0.4-0.2-0.7-0.2c-0.3,0-0.6,0.1-0.9,0.3s-0.4,0.6-0.4,1h2.5c0-0.3-0.1-0.5-0.1-0.7
		S55.3,7.4,55.1,7.3z"/>
	<path class="st0" d="M22.9,8.9c-0.2-0.1-0.5-0.1-0.9-0.1h-1.1V11h1.2c0.5,0,0.9-0.1,1.1-0.3s0.3-0.5,0.3-0.8c0-0.2,0-0.4-0.1-0.6
		S23.2,9,22.9,8.9z"/>
	<path class="st0" d="M23,7.1c0.2-0.2,0.3-0.4,0.3-0.7c0-0.3-0.1-0.6-0.4-0.7s-0.6-0.2-1.1-0.2h-1v1.9h1.1C22.5,7.3,22.8,7.3,23,7.1
		z"/>
	<path class="st0" d="M61.6,0H8C3.6,0,0,3.6,0,8s3.6,8,8,8h53.6c4.4,0,8-3.6,8-8S66,0,61.6,0z M9.3,13.3H6.7v-2.7h2.7V13.3z
		 M9.3,9.3H6.7V2.7h2.7V9.3z M25,11.4c-0.3,0.4-0.6,0.7-1.1,0.9s-1,0.3-1.7,0.3h-3.2V3.9h2.7c1.1,0,2,0.2,2.6,0.5s0.9,0.9,0.9,1.7
		c0,0.3-0.1,0.6-0.2,0.9s-0.3,0.5-0.4,0.6S24.2,7.9,23.9,8V8c0.3,0.1,0.5,0.2,0.8,0.3s0.4,0.3,0.6,0.6s0.2,0.6,0.2,1.1
		C25.4,10.5,25.3,11,25,11.4z M28.8,12.5H27V3.4h1.8V12.5z M36.4,10.7c-0.1,0.4-0.4,0.8-0.6,1.1s-0.6,0.5-1,0.7s-0.8,0.2-1.3,0.2
		c-0.5,0-0.9-0.1-1.3-0.2s-0.7-0.4-1-0.7s-0.5-0.6-0.7-1.1s-0.2-0.9-0.2-1.5c0-0.7,0.1-1.3,0.4-1.8s0.6-0.9,1.1-1.1s1-0.4,1.7-0.4
		c0.6,0,1.2,0.1,1.6,0.4s0.8,0.6,1.1,1.1s0.4,1.1,0.4,1.8C36.6,9.8,36.5,10.3,36.4,10.7z M39.7,10.3c0.1,0.3,0.3,0.5,0.5,0.6
		s0.5,0.2,0.8,0.2c0.4,0,0.7,0,1-0.1s0.6-0.2,0.8-0.4v1.5c-0.3,0.2-0.6,0.3-0.9,0.4s-0.7,0.1-1.1,0.1c-0.6,0-1.2-0.1-1.7-0.4
		s-0.8-0.6-1-1.1s-0.4-1.1-0.4-1.9c0-0.8,0.1-1.5,0.4-2s0.6-0.9,1.1-1.1s1-0.4,1.7-0.4c0.5,0,0.8,0,1.2,0.1s0.6,0.2,0.9,0.3
		l-0.5,1.4c-0.3-0.1-0.5-0.2-0.8-0.3s-0.5-0.1-0.7-0.1c-0.3,0-0.6,0.1-0.8,0.2s-0.4,0.4-0.5,0.7s-0.2,0.7-0.2,1.1
		C39.5,9.7,39.6,10.1,39.7,10.3z M48.7,12.5l-1.9-2.7L46,10.5v2h-1.8V3.4H46v4.1c0,0.2,0,0.5,0,0.7s0,0.5-0.1,0.7h0
		c0.1-0.2,0.2-0.3,0.4-0.5s0.3-0.3,0.4-0.5l1.8-2h2L48,8.8l2.8,3.7H48.7z M57.3,9.7h-4.2c0,0.5,0.2,0.9,0.5,1.2s0.7,0.4,1.2,0.4
		c0.4,0,0.8,0,1.1-0.1s0.7-0.2,1.1-0.4v1.4c-0.3,0.2-0.7,0.3-1,0.4s-0.8,0.1-1.3,0.1c-0.7,0-1.2-0.1-1.7-0.4s-0.9-0.6-1.2-1.1
		s-0.4-1.1-0.4-1.9c0-0.8,0.1-1.4,0.4-1.9s0.6-0.9,1.1-1.1s1-0.4,1.6-0.4C55,5.8,55.5,6,56,6.2s0.8,0.6,1,1s0.4,1,0.4,1.6V9.7z
		 M62.9,7.6c-0.1,0-0.1,0-0.2,0s-0.2,0-0.3,0c-0.2,0-0.5,0-0.7,0.1s-0.4,0.2-0.6,0.3s-0.3,0.3-0.4,0.5s-0.1,0.5-0.1,0.8v3.3h-1.8V6
		h1.4l0.3,1.1h0.1c0.1-0.2,0.3-0.4,0.5-0.6s0.4-0.3,0.7-0.4s0.5-0.2,0.8-0.2c0.1,0,0.2,0,0.3,0s0.2,0,0.3,0L62.9,7.6z"/>
</g>
</svg>
