<svg xmlns="http://www.w3.org/2000/svg" viewBox="0 0 76 18" height="18" width="76"><defs><style>.a{fill:#d4333f;}.b{fill:#fff;}</style></defs><rect class="a" width="76" height="18" rx="9"/><path class="b" d="M23.08,5.22h2.66a5.52,5.52,0,0,1,2.59.48,1.74,1.74,0,0,1,.88,1.68,2.42,2.42,0,0,1-.15.88,1.72,1.72,0,0,1-.45.65,1.45,1.45,0,0,1-.72.33v0a2.24,2.24,0,0,1,.78.31,1.52,1.52,0,0,1,.55.62,2.36,2.36,0,0,1,.21,1.08,2.31,2.31,0,0,1-.38,1.33,2.42,2.42,0,0,1-1.09.86,4.47,4.47,0,0,1-1.68.29h-3.2Zm1.81,3.39H26A1.73,1.73,0,0,0,27,8.36a.88.88,0,0,0,.31-.73A.76.76,0,0,0,27,6.92a2.35,2.35,0,0,0-1.14-.21h-1Zm0,1.44v2.23h1.19A1.62,1.62,0,0,0,27.22,12a1.12,1.12,0,0,0,.32-.85,1,1,0,0,0-.14-.56.9.9,0,0,0-.47-.37,2.44,2.44,0,0,0-.91-.14Z"/><path class="b" d="M32.79,13.78H31V4.67h1.79Z"/><path class="b" d="M40.62,10.5A4.6,4.6,0,0,1,40.4,12,2.94,2.94,0,0,1,39.76,13a2.77,2.77,0,0,1-1,.66,3.71,3.71,0,0,1-1.33.22,3.49,3.49,0,0,1-1.27-.22,2.82,2.82,0,0,1-1-.66A3,3,0,0,1,34.5,12a4.08,4.08,0,0,1-.24-1.45,4,4,0,0,1,.39-1.85,2.72,2.72,0,0,1,1.1-1.15,3.54,3.54,0,0,1,1.71-.39,3.36,3.36,0,0,1,1.63.39,2.82,2.82,0,0,1,1.12,1.15A3.86,3.86,0,0,1,40.62,10.5Zm-4.53,0a3.37,3.37,0,0,0,.14,1.08,1.27,1.27,0,0,0,.44.66,1.48,1.48,0,0,0,1.55,0,1.32,1.32,0,0,0,.43-.66,3.68,3.68,0,0,0,.14-1.08,3.58,3.58,0,0,0-.14-1.08,1.2,1.2,0,0,0-.44-.65,1.26,1.26,0,0,0-.78-.22,1.11,1.11,0,0,0-1,.49A2.61,2.61,0,0,0,36.09,10.5Z"/><path class="b" d="M44.75,13.9a3.67,3.67,0,0,1-1.66-.35,2.42,2.42,0,0,1-1-1.1,4.4,4.4,0,0,1-.36-1.91,4.16,4.16,0,0,1,.41-2,2.58,2.58,0,0,1,1.13-1.11,3.71,3.71,0,0,1,1.68-.36,4.5,4.5,0,0,1,1.17.13,4.86,4.86,0,0,1,.87.31l-.53,1.39a6.81,6.81,0,0,0-.78-.28,2.69,2.69,0,0,0-.73-.11,1.2,1.2,0,0,0-1.24.88,3.44,3.44,0,0,0-.15,1.1,3.08,3.08,0,0,0,.16,1.08,1.38,1.38,0,0,0,.47.64,1.41,1.41,0,0,0,.76.2,3,3,0,0,0,1-.15,3.67,3.67,0,0,0,.84-.42v1.53a2.92,2.92,0,0,1-.85.38A5.11,5.11,0,0,1,44.75,13.9Z"/><path class="b" d="M50.05,4.67V8.74c0,.25,0,.5,0,.74l-.06.74h0l.37-.51a6.26,6.26,0,0,1,.41-.49l1.83-2h2L52,10.07l2.76,3.71H52.7l-1.88-2.65-.77.61v2H48.26V4.67Z"/><path class="b" d="M58.4,7.11A3.34,3.34,0,0,1,60,7.46a2.4,2.4,0,0,1,1,1,3.34,3.34,0,0,1,.36,1.62V11H57.12a1.69,1.69,0,0,0,.45,1.19,1.57,1.57,0,0,0,1.18.43,4.6,4.6,0,0,0,1.15-.13A5,5,0,0,0,61,12.05v1.39a4.39,4.39,0,0,1-1,.35,6.63,6.63,0,0,1-1.28.11,4.05,4.05,0,0,1-1.75-.36,2.69,2.69,0,0,1-1.18-1.11,3.68,3.68,0,0,1-.44-1.88,4.19,4.19,0,0,1,.39-1.91,2.7,2.7,0,0,1,1.09-1.15A3.4,3.4,0,0,1,58.4,7.11Zm0,1.27a1.21,1.21,0,0,0-.87.33,1.58,1.58,0,0,0-.39,1h2.5a1.8,1.8,0,0,0-.14-.71,1.15,1.15,0,0,0-.41-.49A1.22,1.22,0,0,0,58.42,8.38Z"/><path class="b" d="M66.45,7.11h.31l.29,0-.13,1.68a1.09,1.09,0,0,0-.25-.05h-.28a2.52,2.52,0,0,0-.67.09,1.65,1.65,0,0,0-.58.28,1.25,1.25,0,0,0-.41.52,1.81,1.81,0,0,0-.15.78v3.33H62.79V7.23h1.36l.26,1.1h.09A3.07,3.07,0,0,1,65,7.72a2.46,2.46,0,0,1,.66-.44A2,2,0,0,1,66.45,7.11Z"/><rect class="b" x="10.5" y="3" width="3" height="7.5"/><rect class="b" x="10.5" y="12" width="3" height="3"/></svg>