<svg xmlns="http://www.w3.org/2000/svg" viewBox="0 0 74 18" height="18" width="74"><defs><style>.a{fill:#d4333f;}.b,.c{fill:#fff;}.c{fill-rule:evenodd;}</style></defs><rect class="a" width="74" height="18" rx="9"/><path class="b" d="M27.72,6.61a2,2,0,0,0-.93.2,1.86,1.86,0,0,0-.67.58,2.68,2.68,0,0,0-.41.92,4.52,4.52,0,0,0-.14,1.21,4.67,4.67,0,0,0,.22,1.55,2,2,0,0,0,.7,1,2.06,2.06,0,0,0,1.23.34,4.68,4.68,0,0,0,1-.12,11.45,11.45,0,0,0,1.14-.33v1.52a5.5,5.5,0,0,1-1.12.34,6.58,6.58,0,0,1-1.23.1,3.92,3.92,0,0,1-2.18-.55,3.18,3.18,0,0,1-1.26-1.53,5.88,5.88,0,0,1-.41-2.31A5.89,5.89,0,0,1,24,7.73a4,4,0,0,1,.77-1.4A3.41,3.41,0,0,1,26,5.42a4.27,4.27,0,0,1,1.73-.33A5.68,5.68,0,0,1,29,5.25a6.61,6.61,0,0,1,1.22.45l-.58,1.47a8.93,8.93,0,0,0-1-.39A2.69,2.69,0,0,0,27.72,6.61Z"/><path class="b" d="M35.24,7.11h.31l.29,0-.13,1.68a1.09,1.09,0,0,0-.25-.05h-.28a2.52,2.52,0,0,0-.67.09,1.65,1.65,0,0,0-.58.28,1.34,1.34,0,0,0-.41.52,1.81,1.81,0,0,0-.15.78v3.33H31.58V7.23h1.36l.26,1.1h.09a3.07,3.07,0,0,1,.48-.61,2.62,2.62,0,0,1,.66-.44A2,2,0,0,1,35.24,7.11Z"/><path class="b" d="M37.93,4.67a1.29,1.29,0,0,1,.69.18.75.75,0,0,1,.28.69.77.77,0,0,1-.28.69,1.29,1.29,0,0,1-.69.19,1.27,1.27,0,0,1-.69-.19A.77.77,0,0,1,37,5.54a.75.75,0,0,1,.28-.69A1.27,1.27,0,0,1,37.93,4.67Zm.89,2.56v6.55H37V7.23Z"/><path class="b" d="M43.46,12.48a2.76,2.76,0,0,0,.57-.06,5.62,5.62,0,0,0,.55-.15V13.6a3.32,3.32,0,0,1-.71.22,5.37,5.37,0,0,1-.93.08,2.69,2.69,0,0,1-1-.19,1.46,1.46,0,0,1-.73-.66,2.71,2.71,0,0,1-.27-1.32V8.57H40V7.82l1-.6.51-1.38h1.15V7.23h1.83V8.57H42.68v3.16a.7.7,0,0,0,.21.56A.8.8,0,0,0,43.46,12.48Z"/><path class="b" d="M46.8,4.67a1.29,1.29,0,0,1,.69.18.75.75,0,0,1,.28.69.77.77,0,0,1-.28.69,1.29,1.29,0,0,1-.69.19,1.27,1.27,0,0,1-.69-.19.77.77,0,0,1-.28-.69.75.75,0,0,1,.28-.69A1.27,1.27,0,0,1,46.8,4.67Zm.89,2.56v6.55H45.9V7.23Z"/><path class="b" d="M52.23,13.9a3.67,3.67,0,0,1-1.66-.35,2.32,2.32,0,0,1-1-1.1,4.4,4.4,0,0,1-.36-1.91,4,4,0,0,1,.41-2,2.53,2.53,0,0,1,1.13-1.11,3.7,3.7,0,0,1,1.67-.36,4.52,4.52,0,0,1,1.18.13,4.74,4.74,0,0,1,.86.31L53.9,8.94a6.93,6.93,0,0,0-.79-.28,2.58,2.58,0,0,0-.73-.11,1.25,1.25,0,0,0-.77.22,1.31,1.31,0,0,0-.47.66,3.44,3.44,0,0,0-.15,1.1,3.08,3.08,0,0,0,.16,1.08,1.33,1.33,0,0,0,.48.64,1.4,1.4,0,0,0,.75.2,3,3,0,0,0,1-.15,3.88,3.88,0,0,0,.84-.42v1.53a2.86,2.86,0,0,1-.86.38A5.07,5.07,0,0,1,52.23,13.9Z"/><path class="b" d="M58.42,7.1a3.14,3.14,0,0,1,2,.57,2.12,2.12,0,0,1,.7,1.75v4.36H59.9l-.35-.89h0a2.86,2.86,0,0,1-.57.58,2,2,0,0,1-.67.32,3.21,3.21,0,0,1-.93.11,2.33,2.33,0,0,1-1-.22,1.63,1.63,0,0,1-.72-.68,2.3,2.3,0,0,1-.27-1.17A1.73,1.73,0,0,1,56,10.29a4.24,4.24,0,0,1,2.19-.55l1.14,0V9.42a1,1,0,0,0-.27-.76,1.09,1.09,0,0,0-.75-.24,3.22,3.22,0,0,0-.93.14,6.84,6.84,0,0,0-.92.34l-.59-1.21a5.06,5.06,0,0,1,1.17-.43A5.4,5.4,0,0,1,58.42,7.1Zm.95,3.65-.69,0a2.05,2.05,0,0,0-1.21.31,1,1,0,0,0-.33.76.66.66,0,0,0,.24.58,1,1,0,0,0,.62.17,1.4,1.4,0,0,0,1-.34,1.16,1.16,0,0,0,.4-1Z"/><path class="b" d="M64.77,13.78H63V4.67h1.79Z"/><path class="c" d="M10.5,8.12V15h3V8.12L16.34,11a2.43,2.43,0,0,0,.25.2,1.5,1.5,0,0,0,1.87-2.32C16.64,7,14.87,5.15,13,3.38a1.46,1.46,0,0,0-.46-.28,1.51,1.51,0,0,0-1.6.34C9.12,5.26,7.25,7,5.48,8.9a1.5,1.5,0,0,0,1.26,2.49,1.56,1.56,0,0,0,.8-.32L7.66,11Z"/></svg>