<?xml version="1.0" encoding="utf-8"?>
<svg version="1.1" xmlns="http://www.w3.org/2000/svg" xmlns:xlink="http://www.w3.org/1999/xlink" x="0px" y="0px"
	 viewBox="0 0 66.9 16" style="enable-background:new 0 0 66.9 16;" xml:space="preserve" height="16" width="66.9">
<style type="text/css">
	.st0{fill:#D4333F;}
</style>
<g>
	<path class="st0" d="M58.9,0H8C3.6,0,0,3.6,0,8s3.6,8,8,8h50.9c4.4,0,8-3.6,8-8S63.3,0,58.9,0z M14,9.3c-0.3,0.6-0.9,1-1.6,0.8
		C12.2,10,12,9.9,11.9,9.7L9.3,7.2v6.1H6.7V7.2L4.1,9.7c-0.1,0-0.1,0-0.1,0.1c-0.2,0.2-0.4,0.3-0.7,0.3c-0.5,0-0.9-0.2-1.2-0.5
		C1.7,9.1,1.8,8.4,2.2,7.9c1.6-1.7,3.2-3.2,4.8-4.9C7.1,3,7.2,2.9,7.3,2.9c0.2-0.1,0.4-0.2,0.7-0.2h0.1c0.2,0,0.4,0.1,0.6,0.2
		c0.1,0,0.2,0.1,0.2,0.2c1.7,1.6,3.2,3.2,4.9,4.8C13.9,8,14,8.2,14,8.3C14.2,8.6,14.2,9,14,9.3z M20.8,9.8c0.2,0.4,0.4,0.8,0.7,1
		s0.7,0.3,1.2,0.3c0.3,0,0.7,0,1-0.1s0.7-0.2,1.1-0.3v1.5c-0.4,0.2-0.8,0.3-1.1,0.3s-0.8,0.1-1.2,0.1c-0.9,0-1.6-0.2-2.2-0.5
		s-1-0.9-1.3-1.5s-0.4-1.4-0.4-2.3c0-0.6,0.1-1.2,0.3-1.8s0.4-1,0.8-1.4s0.8-0.7,1.3-0.9s1.1-0.3,1.7-0.3c0.4,0,0.9,0.1,1.3,0.2
		s0.8,0.3,1.2,0.4l-0.6,1.5c-0.3-0.2-0.6-0.3-1-0.4s-0.6-0.2-1-0.2c-0.3,0-0.7,0.1-0.9,0.2s-0.5,0.3-0.7,0.6S20.8,6.7,20.7,7
		s-0.1,0.8-0.1,1.2C20.6,8.9,20.6,9.4,20.8,9.8z M30.7,7.6c-0.1,0-0.1,0-0.2,0s-0.2,0-0.3,0c-0.2,0-0.5,0-0.7,0.1s-0.4,0.2-0.6,0.3
		s-0.3,0.3-0.4,0.5s-0.1,0.5-0.1,0.8v3.3h-1.8V6h1.4l0.3,1.1h0.1c0.1-0.2,0.3-0.4,0.5-0.6s0.4-0.3,0.7-0.4s0.5-0.2,0.8-0.2
		c0.1,0,0.2,0,0.3,0s0.2,0,0.3,0L30.7,7.6z M33.8,12.5H32V6h1.8V12.5z M33.6,5c-0.2,0.1-0.4,0.2-0.7,0.2c-0.3,0-0.5-0.1-0.7-0.2
		S32,4.6,32,4.3c0-0.3,0.1-0.6,0.3-0.7s0.4-0.2,0.7-0.2c0.3,0,0.5,0.1,0.7,0.2s0.3,0.4,0.3,0.7C33.9,4.6,33.8,4.8,33.6,5z
		 M39.6,12.3c-0.2,0.1-0.4,0.2-0.7,0.2s-0.6,0.1-0.9,0.1c-0.4,0-0.7-0.1-1.1-0.2s-0.6-0.3-0.7-0.7s-0.3-0.8-0.3-1.3V7.3H35V6.5
		l1-0.6l0.5-1.4h1.1V6h1.8v1.3h-1.8v3.2c0,0.2,0.1,0.4,0.2,0.6s0.3,0.2,0.6,0.2c0.2,0,0.4,0,0.6-0.1s0.4-0.1,0.6-0.1V12.3z
		 M42.7,12.5h-1.8V6h1.8V12.5z M42.5,5c-0.2,0.1-0.4,0.2-0.7,0.2c-0.3,0-0.5-0.1-0.7-0.2s-0.3-0.4-0.3-0.7c0-0.3,0.1-0.6,0.3-0.7
		s0.4-0.2,0.7-0.2c0.3,0,0.5,0.1,0.7,0.2s0.3,0.4,0.3,0.7C42.8,4.6,42.7,4.8,42.5,5z M46.2,10.3c0.1,0.3,0.3,0.5,0.5,0.6
		s0.5,0.2,0.8,0.2c0.4,0,0.7,0,1-0.1s0.6-0.2,0.8-0.4v1.5c-0.3,0.2-0.6,0.3-0.9,0.4s-0.7,0.1-1.1,0.1c-0.6,0-1.2-0.1-1.7-0.4
		s-0.8-0.6-1-1.1s-0.4-1.1-0.4-1.9c0-0.8,0.1-1.5,0.4-2s0.6-0.9,1.1-1.1s1-0.4,1.7-0.4c0.5,0,0.8,0,1.2,0.1s0.6,0.2,0.9,0.3
		l-0.5,1.4c-0.3-0.1-0.5-0.2-0.8-0.3s-0.5-0.1-0.7-0.1c-0.3,0-0.6,0.1-0.8,0.2s-0.4,0.4-0.5,0.7S46,8.8,46,9.3
		C46,9.7,46,10.1,46.2,10.3z M56.1,12.5h-1.2l-0.3-0.9h0c-0.2,0.2-0.4,0.4-0.6,0.6s-0.4,0.3-0.7,0.3s-0.6,0.1-0.9,0.1
		c-0.4,0-0.7-0.1-1-0.2s-0.5-0.4-0.7-0.7s-0.3-0.7-0.3-1.2c0-0.7,0.2-1.2,0.7-1.5s1.2-0.5,2.2-0.5l1.1,0V8.1c0-0.3-0.1-0.6-0.3-0.8
		s-0.4-0.2-0.8-0.2c-0.3,0-0.6,0-0.9,0.1s-0.6,0.2-0.9,0.3l-0.6-1.2c0.3-0.2,0.7-0.3,1.2-0.4s0.9-0.2,1.3-0.2c0.9,0,1.6,0.2,2,0.6
		s0.7,1,0.7,1.7V12.5z M59.8,12.5H58V3.4h1.8V12.5z"/>
	<path class="st0" d="M52.5,9.8c-0.2,0.2-0.3,0.4-0.3,0.8c0,0.3,0.1,0.5,0.2,0.6s0.4,0.2,0.6,0.2c0.4,0,0.7-0.1,1-0.3s0.4-0.5,0.4-1
		V9.5l-0.7,0C53.1,9.5,52.7,9.6,52.5,9.8z"/>
</g>
</svg>
