<svg xmlns="http://www.w3.org/2000/svg" viewBox="0 0 54 18" height="18" width="54"><defs><style>.a{fill:#4b9fd5;}.b{fill:#fff;}</style></defs><rect class="a" width="54" height="18" rx="9"/><path class="b" d="M23.08,13.78V5.22h1.81v8.56Z"/><path class="b" d="M30.63,7.11a2.45,2.45,0,0,1,1.69.57A2.36,2.36,0,0,1,33,9.51v4.27H31.17V10a1.88,1.88,0,0,0-.25-1.06.92.92,0,0,0-.8-.36A1.14,1.14,0,0,0,29,9.1a3.42,3.42,0,0,0-.3,1.6v3.08H26.91V7.23h1.37l.24.84h.1a1.72,1.72,0,0,1,.52-.55,2.33,2.33,0,0,1,.7-.31A3,3,0,0,1,30.63,7.11Z"/><path class="b" d="M38.42,8.57H36.87v5.21H35.08V8.57h-1V7.71l1-.48V6.75a2.48,2.48,0,0,1,.29-1.3,1.57,1.57,0,0,1,.8-.66A3.78,3.78,0,0,1,37.4,4.6a4.65,4.65,0,0,1,1,.09,3.49,3.49,0,0,1,.69.19l-.45,1.31-.45-.12A3,3,0,0,0,37.59,6a.63.63,0,0,0-.55.23.94.94,0,0,0-.17.57v.41h1.55Z"/><path class="b" d="M45.4,10.5A4.6,4.6,0,0,1,45.18,12,2.94,2.94,0,0,1,44.54,13a2.77,2.77,0,0,1-1,.66,3.67,3.67,0,0,1-1.33.22,3.49,3.49,0,0,1-1.27-.22,2.91,2.91,0,0,1-1-.66A3,3,0,0,1,39.28,12,4.08,4.08,0,0,1,39,10.5a4,4,0,0,1,.39-1.85,2.72,2.72,0,0,1,1.1-1.15,3.54,3.54,0,0,1,1.71-.39,3.33,3.33,0,0,1,1.63.39A2.82,2.82,0,0,1,45,8.65,3.86,3.86,0,0,1,45.4,10.5Zm-4.53,0A3.37,3.37,0,0,0,41,11.58a1.16,1.16,0,0,0,1.22.88,1.25,1.25,0,0,0,.77-.22,1.32,1.32,0,0,0,.43-.66,3.68,3.68,0,0,0,.14-1.08,3.58,3.58,0,0,0-.14-1.08A1.2,1.2,0,0,0,43,8.77a1.25,1.25,0,0,0-.78-.22,1.11,1.11,0,0,0-1,.49A2.61,2.61,0,0,0,40.87,10.5Z"/><rect class="b" x="10.5" y="7.5" width="3" height="7.5"/><rect class="b" x="10.5" y="3" width="3" height="3"/></svg>