<?xml version="1.0" encoding="utf-8"?>
<svg version="1.1" xmlns="http://www.w3.org/2000/svg" xmlns:xlink="http://www.w3.org/1999/xlink" x="0px" y="0px"
	 viewBox="0 0 47.1 16" style="enable-background:new 0 0 47.1 16;" xml:space="preserve" height="16" width="47.1">
<style type="text/css">
	.st0{fill:#4B9FD5;}
</style>
<g>
	<path class="st0" d="M39,7.5c-0.2-0.1-0.5-0.2-0.8-0.2c-0.5,0-0.8,0.2-1,0.5s-0.3,0.8-0.3,1.5c0,0.4,0,0.8,0.1,1.1s0.2,0.5,0.4,0.7
		s0.5,0.2,0.8,0.2c0.3,0,0.6-0.1,0.8-0.2s0.3-0.4,0.4-0.7s0.1-0.7,0.1-1.1c0-0.4,0-0.8-0.1-1.1S39.2,7.6,39,7.5z"/>
	<path class="st0" d="M39.1,0H8C3.6,0,0,3.6,0,8s3.6,8,8,8h31.1c4.4,0,8-3.6,8-8S43.5,0,39.1,0z M9.3,13.3H6.7V6.7h2.7V13.3z
		 M9.3,5.3H6.7V2.7h2.7V5.3z M20.9,12.5h-1.8V3.9h1.8V12.5z M29,12.5h-1.8V8.7c0-0.5-0.1-0.8-0.3-1.1s-0.4-0.4-0.8-0.4
		c-0.5,0-0.9,0.2-1.1,0.6s-0.3,0.9-0.3,1.6v3.1h-1.8V6h1.4l0.2,0.8h0.1c0.1-0.2,0.3-0.4,0.5-0.6s0.4-0.2,0.7-0.3s0.5-0.1,0.8-0.1
		c0.7,0,1.3,0.2,1.7,0.6s0.6,1,0.6,1.8V12.5z M34.4,6v1.3h-1.5v5.2h-1.8V7.3h-1V6.4l1-0.5V5.5c0-0.6,0.1-1,0.3-1.3s0.5-0.5,0.8-0.7
		s0.8-0.2,1.2-0.2c0.3,0,0.7,0,0.9,0.1s0.5,0.1,0.7,0.2l-0.5,1.3c-0.1,0-0.3-0.1-0.4-0.1s-0.3-0.1-0.6-0.1c-0.2,0-0.4,0.1-0.5,0.2
		s-0.2,0.3-0.2,0.6V6H34.4z M41.2,10.7c-0.1,0.4-0.4,0.8-0.6,1.1s-0.6,0.5-1,0.7s-0.8,0.2-1.3,0.2c-0.5,0-0.9-0.1-1.3-0.2
		s-0.7-0.4-1-0.7s-0.5-0.6-0.7-1.1S35,9.8,35,9.2c0-0.7,0.1-1.3,0.4-1.8s0.6-0.9,1.1-1.1s1-0.4,1.7-0.4c0.6,0,1.2,0.1,1.6,0.4
		s0.8,0.6,1.1,1.1s0.4,1.1,0.4,1.8C41.4,9.8,41.3,10.3,41.2,10.7z"/>
</g>
</svg>
