<?xml version="1.0" encoding="utf-8"?>
<svg version="1.1" xmlns="http://www.w3.org/2000/svg" xmlns:xlink="http://www.w3.org/1999/xlink" x="0px" y="0px"
	 viewBox="0 0 57.6 16" style="enable-background:new 0 0 57.6 16;" xml:space="preserve" height="16" width="57.6">
<style type="text/css">
	.st0{fill:#D4333F;}
</style>
<g>
	<path class="st0" d="M32,8.8c-0.2,0.2-0.3,0.4-0.3,0.8c0,0.3,0.1,0.5,0.2,0.6s0.4,0.2,0.6,0.2c0.4,0,0.7-0.1,1-0.3s0.4-0.5,0.4-1
		V8.5l-0.7,0C32.6,8.5,32.2,8.6,32,8.8z"/>
	<path class="st0" d="M44.7,6.5c-0.2-0.1-0.5-0.2-0.8-0.2c-0.5,0-0.8,0.2-1,0.5s-0.3,0.8-0.3,1.5c0,0.4,0,0.8,0.1,1.1
		S43,9.8,43.2,10s0.5,0.2,0.8,0.2c0.3,0,0.6-0.1,0.8-0.2s0.3-0.4,0.4-0.7s0.1-0.7,0.1-1.1c0-0.4,0-0.8-0.1-1.1S44.9,6.6,44.7,6.5z"
		/>
	<path class="st0" d="M49.6,0H8C3.6,0,0,3.6,0,8s3.6,8,8,8h41.6c4.4,0,8-3.6,8-8S54,0,49.6,0z M14,10.4c-0.2,0.6-0.9,1-1.6,0.8
		c-0.2-0.1-0.4-0.2-0.6-0.3L8,7.1l-3.9,3.8c-0.1,0-0.1,0-0.1,0.1c-0.6,0.5-1.4,0.3-1.9-0.2c-0.2-0.3-0.3-0.7-0.3-1
		C1.9,9.4,2,9.2,2.2,9c1.6-1.6,3.2-3.1,4.8-4.7c0.1-0.1,0.1-0.1,0.2-0.2c0.2-0.1,0.5-0.2,0.8-0.2c0.1,0,0.2,0,0.3,0.1
		C8.6,4,8.7,4.1,8.9,4.2c1.7,1.5,3.2,3.1,4.9,4.7C13.9,9,14,9.2,14,9.4C14.2,9.7,14.2,10,14,10.4z M28.2,11.5h-1.7V7.5
		c0-0.3,0-0.6,0-0.9s0-0.7,0-1s0-0.6,0-0.7h-0.1l-2.2,6.7h-1.7l-2.1-6.7h-0.1c0,0.2,0,0.4,0,0.7s0,0.7,0,1s0,0.7,0,1v4h-1.6V2.9h2.5
		l2,6.6h0l2.2-6.6h2.5V11.5z M35.7,11.5h-1.2l-0.3-0.9h0c-0.2,0.2-0.4,0.4-0.6,0.6s-0.4,0.3-0.7,0.3s-0.6,0.1-0.9,0.1
		c-0.4,0-0.7-0.1-1-0.2s-0.5-0.4-0.7-0.7s-0.3-0.7-0.3-1.2c0-0.7,0.2-1.2,0.7-1.5s1.2-0.5,2.2-0.5l1.1,0V7.1c0-0.3-0.1-0.6-0.3-0.8
		s-0.4-0.2-0.8-0.2c-0.3,0-0.6,0-0.9,0.1S31.3,6.5,31,6.6l-0.6-1.2c0.3-0.2,0.7-0.3,1.2-0.4s0.9-0.2,1.3-0.2c0.9,0,1.6,0.2,2,0.6
		s0.7,1,0.7,1.7V11.5z M39.3,12.2c0,0.4-0.1,0.8-0.2,1.1s-0.4,0.6-0.7,0.8s-0.8,0.3-1.3,0.3c-0.2,0-0.4,0-0.6,0s-0.4-0.1-0.5-0.1
		v-1.4c0.1,0,0.3,0.1,0.4,0.1s0.3,0,0.4,0c0.2,0,0.4-0.1,0.6-0.2s0.3-0.4,0.3-0.8V5h1.8V12.2z M39.1,4c-0.2,0.1-0.4,0.2-0.7,0.2
		c-0.3,0-0.5-0.1-0.7-0.2s-0.3-0.4-0.3-0.7c0-0.3,0.1-0.6,0.3-0.7s0.4-0.2,0.7-0.2c0.3,0,0.5,0.1,0.7,0.2s0.3,0.4,0.3,0.7
		C39.4,3.6,39.3,3.8,39.1,4z M46.9,9.7c-0.1,0.4-0.4,0.8-0.6,1.1s-0.6,0.5-1,0.7s-0.8,0.2-1.3,0.2c-0.5,0-0.9-0.1-1.3-0.2
		s-0.7-0.4-1-0.7s-0.5-0.6-0.7-1.1s-0.2-0.9-0.2-1.5c0-0.7,0.1-1.3,0.4-1.8s0.6-0.9,1.1-1.1s1-0.4,1.7-0.4c0.6,0,1.2,0.1,1.6,0.4
		s0.8,0.6,1.1,1.1s0.4,1.1,0.4,1.8C47.1,8.8,47,9.3,46.9,9.7z M52.7,6.6c-0.1,0-0.1,0-0.2,0s-0.2,0-0.3,0c-0.2,0-0.5,0-0.7,0.1
		s-0.4,0.2-0.6,0.3s-0.3,0.3-0.4,0.5s-0.1,0.5-0.1,0.8v3.3h-1.8V5h1.4l0.3,1.1h0.1c0.1-0.2,0.3-0.4,0.5-0.6s0.4-0.3,0.7-0.4
		s0.5-0.2,0.8-0.2c0.1,0,0.2,0,0.3,0s0.2,0,0.3,0L52.7,6.6z"/>
</g>
</svg>
