<svg xmlns="http://www.w3.org/2000/svg" viewBox="0 0 18 18" height="18" width="18"><defs><style>.a{fill:#d4333f;}.b{fill:#fff;fill-rule:evenodd;}</style></defs><circle class="a" cx="9" cy="9" r="9"/><path class="b" d="M9.12,4a2.84,2.84,0,0,1,.31.06,1.71,1.71,0,0,1,.56.31c1.86,1.72,3.64,3.54,5.46,5.3a1.69,1.69,0,0,1,.35.53,1.57,1.57,0,0,1,0,1.09,1.49,1.49,0,0,1-1.75.92,1.61,1.61,0,0,1-.69-.38L9,7.59,4.64,11.83l-.12.1a1.49,1.49,0,0,1-2.1-.27,1.44,1.44,0,0,1-.3-1.15,1.55,1.55,0,0,1,.38-.78C4.27,7.91,6.13,6.19,8,4.42a1.5,1.5,0,0,1,.25-.19A1.58,1.58,0,0,1,9.12,4Z"/></svg>