<svg xmlns="http://www.w3.org/2000/svg" viewBox="0 0 66 18" height="18" width="66"><defs><style>.a{fill:#d4333f;}.b,.c{fill:#fff;}.c{fill-rule:evenodd;}</style></defs><rect class="a" width="66" height="18" rx="9"/><path class="b" d="M26.71,13.78,24.64,7.06h-.05c0,.16,0,.4,0,.73s0,.66.05,1,0,.7,0,1v4H23.08V5.22h2.47l2,6.55h0l2.15-6.55h2.48v8.56h-1.7v-4c0-.27,0-.58,0-.93s0-.69,0-1,0-.56,0-.72h-.05l-2.21,6.71Z"/><path class="b" d="M36.94,7.1a3.16,3.16,0,0,1,2,.57,2.12,2.12,0,0,1,.7,1.75v4.36H38.41l-.34-.89h0a3.49,3.49,0,0,1-.57.58,1.94,1.94,0,0,1-.68.32,3.09,3.09,0,0,1-.92.11,2.31,2.31,0,0,1-1-.22,1.71,1.71,0,0,1-.73-.68,2.41,2.41,0,0,1-.26-1.17,1.72,1.72,0,0,1,.73-1.54,4.28,4.28,0,0,1,2.2-.55l1.13,0V9.42a1,1,0,0,0-.26-.76,1.09,1.09,0,0,0-.75-.24,3.34,3.34,0,0,0-.94.14A6.72,6.72,0,0,0,35,8.9l-.59-1.21a5.06,5.06,0,0,1,1.17-.43A5.35,5.35,0,0,1,36.94,7.1Zm.94,3.65-.69,0a2,2,0,0,0-1.2.31.94.94,0,0,0-.34.76.66.66,0,0,0,.24.58,1,1,0,0,0,.63.17,1.42,1.42,0,0,0,1-.34,1.19,1.19,0,0,0,.39-1Z"/><path class="b" d="M41,16.67a4.7,4.7,0,0,1-.63-.05,4.63,4.63,0,0,1-.55-.1V15.11l.41.09a2.89,2.89,0,0,0,.43,0,.94.94,0,0,0,.62-.2,1,1,0,0,0,.25-.79v-7h1.79v7.26a2.59,2.59,0,0,1-.23,1.09,1.71,1.71,0,0,1-.74.79A2.65,2.65,0,0,1,41,16.67Zm.45-11.13a.76.76,0,0,1,.29-.69,1.39,1.39,0,0,1,1.37,0,.76.76,0,0,1,.29.69.78.78,0,0,1-.29.69,1.33,1.33,0,0,1-1.37,0A.78.78,0,0,1,41.42,5.54Z"/><path class="b" d="M51.12,10.5A4.6,4.6,0,0,1,50.9,12,2.94,2.94,0,0,1,50.26,13a2.77,2.77,0,0,1-1,.66,3.71,3.71,0,0,1-1.33.22,3.49,3.49,0,0,1-1.27-.22,2.82,2.82,0,0,1-1-.66A3,3,0,0,1,45,12a4.08,4.08,0,0,1-.24-1.45,4,4,0,0,1,.39-1.85,2.72,2.72,0,0,1,1.1-1.15A3.54,3.54,0,0,1,48,7.11a3.36,3.36,0,0,1,1.63.39,2.82,2.82,0,0,1,1.12,1.15A3.86,3.86,0,0,1,51.12,10.5Zm-4.53,0a3.37,3.37,0,0,0,.14,1.08,1.27,1.27,0,0,0,.44.66,1.48,1.48,0,0,0,1.55,0,1.32,1.32,0,0,0,.43-.66,3.68,3.68,0,0,0,.14-1.08,3.58,3.58,0,0,0-.14-1.08,1.2,1.2,0,0,0-.44-.65,1.26,1.26,0,0,0-.78-.22,1.11,1.11,0,0,0-1,.49A2.61,2.61,0,0,0,46.59,10.5Z"/><path class="b" d="M56.25,7.11h.31l.29,0-.13,1.68a1.09,1.09,0,0,0-.25-.05h-.28a2.52,2.52,0,0,0-.67.09,1.65,1.65,0,0,0-.58.28,1.25,1.25,0,0,0-.41.52,1.81,1.81,0,0,0-.15.78v3.33H52.59V7.23H54l.26,1.1h.09a3.07,3.07,0,0,1,.48-.61,2.31,2.31,0,0,1,.66-.44A2,2,0,0,1,56.25,7.11Z"/><path class="c" d="M12.12,4a2.84,2.84,0,0,1,.31.06,1.71,1.71,0,0,1,.56.31c1.86,1.72,3.64,3.54,5.46,5.3a1.69,1.69,0,0,1,.35.53,1.57,1.57,0,0,1,0,1.09,1.49,1.49,0,0,1-1.75.92,1.61,1.61,0,0,1-.69-.38L12,7.59,7.64,11.83l-.12.1a1.49,1.49,0,0,1-2.1-.27,1.44,1.44,0,0,1-.3-1.15,1.55,1.55,0,0,1,.38-.78C7.27,7.91,9.13,6.19,11,4.42a1.5,1.5,0,0,1,.25-.19A1.58,1.58,0,0,1,12.12,4Z"/></svg>