<?xml version="1.0" encoding="utf-8"?>
<svg version="1.1" xmlns="http://www.w3.org/2000/svg" xmlns:xlink="http://www.w3.org/1999/xlink" x="0px" y="0px"
	 viewBox="0 0 58.2 16" style="enable-background:new 0 0 58.2 16;" xml:space="preserve" height="16" width="58.2">
<style type="text/css">
	.st0{fill:#B0D513;}
</style>
<g>
	<path class="st0" d="M45.4,7.5c-0.2-0.1-0.5-0.2-0.8-0.2c-0.5,0-0.8,0.2-1,0.5s-0.3,0.8-0.3,1.5c0,0.4,0,0.8,0.1,1.1
		s0.2,0.5,0.4,0.7s0.5,0.2,0.8,0.2c0.3,0,0.6-0.1,0.8-0.2s0.3-0.4,0.4-0.7s0.1-0.7,0.1-1.1c0-0.4,0-0.8-0.1-1.1S45.6,7.6,45.4,7.5z"
		/>
	<path class="st0" d="M50.3,0H8C3.6,0,0,3.6,0,8s3.6,8,8,8h42.3c4.4,0,8-3.6,8-8S54.7,0,50.3,0z M13.8,8.1c-1.6,1.7-3.2,3.2-4.8,4.9
		c-0.4,0.4-0.9,0.5-1.4,0.3c-0.2-0.1-0.3-0.1-0.4-0.3c-1.7-1.6-3.2-3.2-4.9-4.8C2,7.9,1.9,7.7,1.9,7.4C1.8,6.6,2.3,6,3,5.9
		c0.3,0,0.6,0,0.9,0.2C4,6.1,4.1,6.2,4.1,6.3l2.5,2.5V2.7h2.7v6.1l2.5-2.5c0.1,0,0.1,0,0.1-0.1c0.2-0.2,0.5-0.3,0.7-0.3
		c0.5,0,0.9,0.2,1.2,0.5C14.3,6.9,14.2,7.6,13.8,8.1z M28.2,12.5h-1.7V8.5c0-0.3,0-0.6,0-0.9s0-0.7,0-1s0-0.6,0-0.7h-0.1l-2.2,6.7
		h-1.7l-2.1-6.7h-0.1c0,0.2,0,0.4,0,0.7s0,0.7,0,1s0,0.7,0,1v4h-1.6V3.9h2.5l2,6.6h0l2.2-6.6h2.5V12.5z M32,12.5h-1.8V6H32V12.5z
		 M31.8,5c-0.2,0.1-0.4,0.2-0.7,0.2c-0.3,0-0.5-0.1-0.7-0.2s-0.3-0.4-0.3-0.7c0-0.3,0.1-0.6,0.3-0.7s0.4-0.2,0.7-0.2
		c0.3,0,0.5,0.1,0.7,0.2s0.3,0.4,0.3,0.7C32.1,4.6,32,4.8,31.8,5z M40,12.5h-1.8V8.7c0-0.5-0.1-0.8-0.3-1.1s-0.4-0.4-0.8-0.4
		c-0.5,0-0.9,0.2-1.1,0.6s-0.3,0.9-0.3,1.6v3.1h-1.8V6h1.4l0.2,0.8h0.1c0.1-0.2,0.3-0.4,0.5-0.6s0.4-0.2,0.7-0.3s0.5-0.1,0.8-0.1
		c0.7,0,1.3,0.2,1.7,0.6s0.6,1,0.6,1.8V12.5z M47.5,10.7c-0.1,0.4-0.4,0.8-0.6,1.1s-0.6,0.5-1,0.7s-0.8,0.2-1.3,0.2
		c-0.5,0-0.9-0.1-1.3-0.2s-0.7-0.4-1-0.7s-0.5-0.6-0.7-1.1s-0.2-0.9-0.2-1.5c0-0.7,0.1-1.3,0.4-1.8s0.6-0.9,1.1-1.1s1-0.4,1.7-0.4
		c0.6,0,1.2,0.1,1.6,0.4s0.8,0.6,1.1,1.1s0.4,1.1,0.4,1.8C47.8,9.8,47.7,10.3,47.5,10.7z M53.4,7.6c-0.1,0-0.1,0-0.2,0s-0.2,0-0.3,0
		c-0.2,0-0.5,0-0.7,0.1s-0.4,0.2-0.6,0.3s-0.3,0.3-0.4,0.5S51,8.9,51,9.2v3.3h-1.8V6h1.4l0.3,1.1h0.1c0.1-0.2,0.3-0.4,0.5-0.6
		s0.4-0.3,0.7-0.4s0.5-0.2,0.8-0.2c0.1,0,0.2,0,0.3,0s0.2,0,0.3,0L53.4,7.6z"/>
</g>
</svg>
