<svg xmlns="http://www.w3.org/2000/svg" viewBox="0 0 67 18" height="18" width="67"><defs><style>.a{fill:#b0d513;}.b,.c{fill:#fff;}.c{fill-rule:evenodd;}</style></defs><rect class="a" width="67" height="18" rx="9"/><path class="b" d="M26.71,13.78,24.64,7.06h-.05c0,.16,0,.4,0,.73s0,.66.05,1,0,.7,0,1v4H23.08V5.22h2.47l2,6.55h0l2.15-6.55h2.48v8.56h-1.7v-4c0-.27,0-.58,0-.93s0-.69,0-1,0-.56,0-.72h-.05l-2.21,6.71Z"/><path class="b" d="M35.15,4.67a1.25,1.25,0,0,1,.68.18.73.73,0,0,1,.29.69.76.76,0,0,1-.29.69,1.33,1.33,0,0,1-1.37,0,.77.77,0,0,1-.28-.69.75.75,0,0,1,.28-.69A1.27,1.27,0,0,1,35.15,4.67ZM36,7.23v6.55H34.25V7.23Z"/><path class="b" d="M41.63,7.11a2.43,2.43,0,0,1,1.69.57A2.32,2.32,0,0,1,44,9.51v4.27H42.17V10a1.8,1.8,0,0,0-.25-1.06.92.92,0,0,0-.8-.36A1.14,1.14,0,0,0,40,9.1a3.42,3.42,0,0,0-.3,1.6v3.08H37.91V7.23h1.37l.24.84h.1a1.72,1.72,0,0,1,.52-.55,2.33,2.33,0,0,1,.7-.31A3,3,0,0,1,41.63,7.11Z"/><path class="b" d="M51.75,10.5A4.33,4.33,0,0,1,51.53,12,2.92,2.92,0,0,1,50.9,13a2.77,2.77,0,0,1-1,.66,3.71,3.71,0,0,1-1.33.22,3.49,3.49,0,0,1-1.27-.22,2.82,2.82,0,0,1-1-.66A3.12,3.12,0,0,1,45.63,12a4.32,4.32,0,0,1-.23-1.45,4,4,0,0,1,.39-1.85,2.66,2.66,0,0,1,1.1-1.15,3.54,3.54,0,0,1,1.71-.39,3.36,3.36,0,0,1,1.63.39,2.82,2.82,0,0,1,1.12,1.15A3.86,3.86,0,0,1,51.75,10.5Zm-4.53,0a3.35,3.35,0,0,0,.15,1.08,1.32,1.32,0,0,0,.43.66,1.26,1.26,0,0,0,.78.22,1.21,1.21,0,0,0,.77-.22,1.27,1.27,0,0,0,.44-.66,3.68,3.68,0,0,0,.14-1.08,3.58,3.58,0,0,0-.14-1.08,1.2,1.2,0,0,0-.44-.65,1.26,1.26,0,0,0-.78-.22,1.14,1.14,0,0,0-1,.49A2.7,2.7,0,0,0,47.22,10.5Z"/><path class="b" d="M56.89,7.11h.31l.29,0-.13,1.68-.25-.05h-.28a2.46,2.46,0,0,0-.67.09,1.78,1.78,0,0,0-.59.28,1.32,1.32,0,0,0-.4.52,1.81,1.81,0,0,0-.15.78v3.33H53.23V7.23h1.35l.27,1.1h.09a2.74,2.74,0,0,1,.48-.61,2.31,2.31,0,0,1,.66-.44A2,2,0,0,1,56.89,7.11Z"/><path class="c" d="M13.5,9.88V3h-3V9.88L7.66,7a2.43,2.43,0,0,0-.25-.2A1.5,1.5,0,0,0,5.54,9.16C7.36,11,9.13,12.85,11,14.62a1.46,1.46,0,0,0,.46.28,1.51,1.51,0,0,0,1.6-.34c1.82-1.82,3.69-3.59,5.46-5.46a1.5,1.5,0,0,0-1.26-2.49,1.56,1.56,0,0,0-.8.32L16.34,7Z"/></svg>